<svg width="14" height="14" viewBox="0 0 14 14" fill="none" xmlns="http://www.w3.org/2000/svg">
<path d="M9.47852 1.60413H4.52018C3.63108 1.60567 2.77883 1.95955 2.15013 2.58824C1.52144 3.21694 1.16756 4.06919 1.16602 4.95829V9.04163C1.16756 9.93073 1.52144 10.783 2.15013 11.4117C2.77883 12.0404 3.63108 12.3943 4.52018 12.3958H9.47852C10.3676 12.3943 11.2199 12.0404 11.8486 11.4117C12.4773 10.783 12.8311 9.93073 12.8327 9.04163V4.95829C12.8311 4.06919 12.4773 3.21694 11.8486 2.58824C11.2199 1.95955 10.3676 1.60567 9.47852 1.60413ZM4.66602 3.55829C4.87408 3.55795 5.07964 3.60379 5.26784 3.69252C5.45604 3.78125 5.6222 3.91065 5.75433 4.07138C5.88646 4.23211 5.98127 4.42017 6.03191 4.62198C6.08255 4.82379 6.08776 5.03433 6.04716 5.2384C6.00657 5.44247 5.92118 5.63499 5.79716 5.80206C5.67315 5.96913 5.51359 6.10659 5.33001 6.20452C5.14642 6.30244 4.94339 6.3584 4.73556 6.36835C4.52773 6.3783 4.32028 6.34199 4.12818 6.26204C3.82781 6.13704 3.58009 5.91172 3.42726 5.6245C3.27443 5.33728 3.22596 5.00595 3.29009 4.68699C3.35423 4.36802 3.52701 4.08118 3.77898 3.87536C4.03095 3.66954 4.3465 3.55748 4.67185 3.55829H4.66602ZM11.9577 7.45496L10.686 6.46913C10.3197 6.21382 9.87528 6.09554 9.43054 6.135C8.9858 6.17446 8.56913 6.36915 8.25352 6.68496L6.89435 8.04413C6.60976 8.31948 6.2402 8.49018 5.84605 8.52832C5.45189 8.56647 5.05646 8.4698 4.72435 8.25413C4.56249 8.14718 4.36933 8.09786 4.17602 8.11413C3.98188 8.13455 3.80066 8.22104 3.66268 8.35913L2.24518 10.0158C2.09206 9.66514 2.02218 9.28379 2.04102 8.90163L3.02102 7.76413C3.3036 7.47855 3.67585 7.2989 4.07524 7.25535C4.47464 7.2118 4.87685 7.307 5.21435 7.52496C5.37571 7.63422 5.57023 7.68355 5.76416 7.66437C5.95809 7.64519 6.13918 7.55872 6.27602 7.41996L7.63518 6.06663C8.10028 5.60307 8.71434 5.31894 9.36874 5.26449C10.0231 5.21005 10.6757 5.3888 11.211 5.76913L11.9577 6.35246V7.45496Z" fill="white" fill-opacity="0.6"/>
<path d="M5.19839 4.96418C5.19839 5.10497 5.14246 5.23999 5.04291 5.33954C4.94336 5.43909 4.80834 5.49502 4.66755 5.49502C4.52677 5.49502 4.39175 5.43909 4.2922 5.33954C4.19265 5.23999 4.13672 5.10497 4.13672 4.96418C4.13672 4.8234 4.19265 4.68838 4.2922 4.58883C4.39175 4.48928 4.52677 4.43335 4.66755 4.43335C4.80834 4.43335 4.94336 4.48928 5.04291 4.58883C5.14246 4.68838 5.19839 4.8234 5.19839 4.96418Z" fill="white" fill-opacity="0.6"/>
</svg>
