<svg width="117" height="118" viewBox="0 0 117 118" fill="none" xmlns="http://www.w3.org/2000/svg">
<path d="M91.5208 0.860352H25.6678C11.7614 0.860352 0.488037 12.1337 0.488037 26.0401V91.8932C0.488037 105.8 11.7614 117.073 25.6678 117.073H91.5208C105.427 117.073 116.701 105.8 116.701 91.8932V26.0401C116.701 12.1337 105.427 0.860352 91.5208 0.860352Z" fill="url(#paint0_linear_22_985)"/>
<mask id="mask0_22_985" style="mask-type:luminance" maskUnits="userSpaceOnUse" x="0" y="0" width="117" height="118">
<path d="M91.5208 0.860352H25.6678C11.7614 0.860352 0.488037 12.1337 0.488037 26.0401V91.8932C0.488037 105.8 11.7614 117.073 25.6678 117.073H91.5208C105.427 117.073 116.701 105.8 116.701 91.8932V26.0401C116.701 12.1337 105.427 0.860352 91.5208 0.860352Z" fill="white"/>
</mask>
<g mask="url(#mask0_22_985)">
<g style="mix-blend-mode:multiply" opacity="0.8">
<path opacity="0.93" d="M57.8838 117.074L43.6455 96.1904H42.7375L56.9747 117.074H57.8838Z" fill="url(#paint1_linear_22_985)"/>
<path opacity="0.92" d="M58.6113 117.074L44.373 96.1904H43.4651L57.7023 117.074H58.6113Z" fill="url(#paint2_linear_22_985)"/>
<path opacity="0.91" d="M59.3386 117.074L45.1003 96.1904H44.1924L58.4296 117.074H59.3386Z" fill="url(#paint3_linear_22_985)"/>
<path opacity="0.9" d="M60.0661 117.074L45.8278 96.1904H44.9199L59.1571 117.074H60.0661Z" fill="url(#paint4_linear_22_985)"/>
<path opacity="0.9" d="M60.7925 117.074L46.5554 96.1904H45.6475L59.8846 117.074H60.7925Z" fill="url(#paint5_linear_22_985)"/>
<path opacity="0.89" d="M61.5198 117.074L47.2827 96.1904H46.3748L60.6119 117.074H61.5198Z" fill="url(#paint6_linear_22_985)"/>
<path opacity="0.88" d="M62.2474 117.074L48.0102 96.1904H47.1023L61.3395 117.074H62.2474Z" fill="url(#paint7_linear_22_985)"/>
<path opacity="0.87" d="M62.9749 117.074L48.7377 96.1904H47.8298L62.067 117.074H62.9749Z" fill="url(#paint8_linear_22_985)"/>
<path opacity="0.87" d="M63.7025 117.074L49.4653 96.1904H48.5574L62.7945 117.074H63.7025Z" fill="url(#paint9_linear_22_985)"/>
<path opacity="0.86" d="M64.4297 117.074L50.1926 96.1904H49.2847L63.5218 117.074H64.4297Z" fill="url(#paint10_linear_22_985)"/>
<path opacity="0.85" d="M65.1573 117.074L50.9201 96.1904H50.0122L64.2494 117.074H65.1573Z" fill="url(#paint11_linear_22_985)"/>
<path opacity="0.84" d="M65.8848 117.074L51.6477 96.1904H50.7397L64.9769 117.074H65.8848Z" fill="url(#paint12_linear_22_985)"/>
<path opacity="0.84" d="M66.6123 117.074L52.3751 96.1904H51.4661L65.7044 117.074H66.6123Z" fill="url(#paint13_linear_22_985)"/>
<path opacity="0.83" d="M67.3396 117.074L53.1024 96.1904H52.1934L66.4317 117.074H67.3396Z" fill="url(#paint14_linear_22_985)"/>
<path opacity="0.82" d="M68.0671 117.074L53.8299 96.1904H52.9209L67.1592 117.074H68.0671Z" fill="url(#paint15_linear_22_985)"/>
<path opacity="0.81" d="M68.7947 117.074L54.5575 96.1904H53.6484L67.8867 117.074H68.7947Z" fill="url(#paint16_linear_22_985)"/>
<path opacity="0.81" d="M69.522 117.074L55.2848 96.1904H54.3757L68.6129 117.074H69.522Z" fill="url(#paint17_linear_22_985)"/>
<path opacity="0.8" d="M70.2495 117.074L56.0123 96.1904H55.1033L69.3404 117.074H70.2495Z" fill="url(#paint18_linear_22_985)"/>
<path opacity="0.79" d="M70.977 117.074L56.7387 96.1904H55.8308L70.068 117.074H70.977Z" fill="url(#paint19_linear_22_985)"/>
<path opacity="0.79" d="M71.7043 117.074L57.466 96.1904H56.5581L70.7953 117.074H71.7043Z" fill="url(#paint20_linear_22_985)"/>
<path opacity="0.78" d="M72.4319 117.074L58.1936 96.1904H57.2856L71.5228 117.074H72.4319Z" fill="url(#paint21_linear_22_985)"/>
<path opacity="0.77" d="M73.1594 117.074L58.9211 96.1904H58.0132L72.2504 117.074H73.1594Z" fill="url(#paint22_linear_22_985)"/>
<path opacity="0.76" d="M73.8858 117.074L59.6486 96.1904H58.7407L72.9779 117.074H73.8858Z" fill="url(#paint23_linear_22_985)"/>
<path opacity="0.76" d="M74.6131 117.074L60.3759 96.1904H59.468L73.7052 117.074H74.6131Z" fill="url(#paint24_linear_22_985)"/>
<path opacity="0.75" d="M75.3406 117.074L61.1035 96.1904H60.1956L74.4327 117.074H75.3406Z" fill="url(#paint25_linear_22_985)"/>
<path opacity="0.74" d="M76.0682 117.074L61.831 96.1904H60.9231L75.1603 117.074H76.0682Z" fill="url(#paint26_linear_22_985)"/>
<path opacity="0.73" d="M76.7955 117.074L62.5583 96.1904H61.6504L75.8876 117.074H76.7955Z" fill="url(#paint27_linear_22_985)"/>
<path opacity="0.73" d="M77.523 117.074L63.2858 96.1904H62.3779L76.6151 117.074H77.523Z" fill="url(#paint28_linear_22_985)"/>
<path opacity="0.72" d="M78.2506 117.074L64.0134 96.1904H63.1055L77.3426 117.074H78.2506Z" fill="url(#paint29_linear_22_985)"/>
<path opacity="0.71" d="M78.9778 117.074L64.7407 96.1904H63.8328L78.0699 117.074H78.9778Z" fill="url(#paint30_linear_22_985)"/>
<path opacity="0.7" d="M79.7053 117.074L65.4681 96.1904H64.5591L78.7974 117.074H79.7053Z" fill="url(#paint31_linear_22_985)"/>
<path opacity="0.7" d="M80.4328 117.074L66.1957 96.1904H65.2866L79.5249 117.074H80.4328Z" fill="url(#paint32_linear_22_985)"/>
<path opacity="0.69" d="M81.1604 117.074L66.9232 96.1904H66.0142L80.2525 117.074H81.1604Z" fill="url(#paint33_linear_22_985)"/>
<path opacity="0.68" d="M81.8877 117.074L67.6505 96.1904H66.7415L80.9798 117.074H81.8877Z" fill="url(#paint34_linear_22_985)"/>
<path opacity="0.67" d="M82.6152 117.074L68.378 96.1904H67.469L81.7062 117.074H82.6152Z" fill="url(#paint35_linear_22_985)"/>
<path opacity="0.67" d="M83.3428 117.074L69.1056 96.1904H68.1965L82.4337 117.074H83.3428Z" fill="url(#paint36_linear_22_985)"/>
<path opacity="0.66" d="M84.0703 117.074L69.832 96.1904H68.9241L83.1612 117.074H84.0703Z" fill="url(#paint37_linear_22_985)"/>
<path opacity="0.65" d="M84.7976 117.074L70.5593 96.1904H69.6514L83.8885 117.074H84.7976Z" fill="url(#paint38_linear_22_985)"/>
<path opacity="0.64" d="M85.5251 117.074L71.2868 96.1904H70.3789L84.6161 117.074H85.5251Z" fill="url(#paint39_linear_22_985)"/>
<path opacity="0.64" d="M86.2515 117.074L72.0144 96.1904H71.1064L85.3436 117.074H86.2515Z" fill="url(#paint40_linear_22_985)"/>
<path opacity="0.63" d="M86.9788 117.074L72.7417 96.1904H71.8337L86.0709 117.074H86.9788Z" fill="url(#paint41_linear_22_985)"/>
<path opacity="0.62" d="M87.7064 117.074L73.4692 96.1904H72.5613L86.7985 117.074H87.7064Z" fill="url(#paint42_linear_22_985)"/>
<path opacity="0.62" d="M88.4339 117.074L74.1967 96.1904H73.2888L87.526 117.074H88.4339Z" fill="url(#paint43_linear_22_985)"/>
<path opacity="0.61" d="M89.1612 117.074L74.924 96.1904H74.0161L88.2533 117.074H89.1612Z" fill="url(#paint44_linear_22_985)"/>
<path opacity="0.6" d="M89.8887 117.074L75.6516 96.1904H74.7437L88.9808 117.074H89.8887Z" fill="url(#paint45_linear_22_985)"/>
<path opacity="0.59" d="M90.6163 117.074L76.3791 96.1904H75.4712L89.7084 117.074H90.6163Z" fill="url(#paint46_linear_22_985)"/>
<path opacity="0.59" d="M91.3436 117.074L77.1064 96.1904H76.1985L90.4357 117.074H91.3436Z" fill="url(#paint47_linear_22_985)"/>
<path opacity="0.58" d="M92.0711 117.074L77.8339 96.1904H76.926L91.1632 117.074H92.0711Z" fill="url(#paint48_linear_22_985)"/>
<path opacity="0.57" d="M92.7986 117.074L78.5614 96.1904H77.6523L91.8907 117.074H92.7986Z" fill="url(#paint49_linear_22_985)"/>
<path opacity="0.56" d="M93.5261 117.074L79.2889 96.1904H78.3799L92.6182 117.074H93.5261Z" fill="url(#paint50_linear_22_985)"/>
<path opacity="0.56" d="M94.2536 117.074L80.0165 96.1904H79.1074L93.3457 117.074H94.2536Z" fill="url(#paint51_linear_22_985)"/>
<path opacity="0.55" d="M94.9809 117.074L80.7438 96.1904H79.8347L94.0719 117.074H94.9809Z" fill="url(#paint52_linear_22_985)"/>
<path opacity="0.54" d="M95.7085 117.074L81.4713 96.1904H80.5623L94.7994 117.074H95.7085Z" fill="url(#paint53_linear_22_985)"/>
<path opacity="0.53" d="M96.436 117.074L82.1977 96.1904H81.2898L95.527 117.074H96.436Z" fill="url(#paint54_linear_22_985)"/>
<path opacity="0.53" d="M97.1633 117.074L82.925 96.1904H82.0171L96.2543 117.074H97.1633Z" fill="url(#paint55_linear_22_985)"/>
<path opacity="0.52" d="M97.8909 117.074L83.6525 96.1904H82.7446L96.9818 117.074H97.8909Z" fill="url(#paint56_linear_22_985)"/>
<path opacity="0.51" d="M98.6184 117.074L84.3801 96.1904H83.4722L97.7093 117.074H98.6184Z" fill="url(#paint57_linear_22_985)"/>
<path opacity="0.5" d="M99.3445 117.074L85.1074 96.1904H84.1995L98.4366 117.074H99.3445Z" fill="url(#paint58_linear_22_985)"/>
<path opacity="0.5" d="M100.072 117.074L85.8349 96.1904H84.927L99.1642 117.074H100.072Z" fill="url(#paint59_linear_22_985)"/>
<path opacity="0.49" d="M100.8 117.074L86.5625 96.1904H85.6545L99.8917 117.074H100.8Z" fill="url(#paint60_linear_22_985)"/>
<path opacity="0.48" d="M101.527 117.074L87.2897 96.1904H86.3818L100.619 117.074H101.527Z" fill="url(#paint61_linear_22_985)"/>
<path opacity="0.48" d="M102.254 117.074L88.0173 96.1904H87.1094L101.347 117.074H102.254Z" fill="url(#paint62_linear_22_985)"/>
<path opacity="0.47" d="M102.982 117.074L88.7448 96.1904H87.8369L102.074 117.074H102.982Z" fill="url(#paint63_linear_22_985)"/>
<path opacity="0.46" d="M103.71 117.074L89.4724 96.1904H88.5645L102.802 117.074H103.71Z" fill="url(#paint64_linear_22_985)"/>
<path opacity="0.45" d="M104.437 117.074L90.1997 96.1904H89.2917L103.529 117.074H104.437Z" fill="url(#paint65_linear_22_985)"/>
<path opacity="0.45" d="M105.164 117.074L90.9271 96.1904H90.0181L104.256 117.074H105.164Z" fill="url(#paint66_linear_22_985)"/>
<path opacity="0.44" d="M105.892 117.074L91.6547 96.1904H90.7456L104.984 117.074H105.892Z" fill="url(#paint67_linear_22_985)"/>
<path opacity="0.43" d="M106.619 117.074L92.3822 96.1904H91.4731L105.711 117.074H106.619Z" fill="url(#paint68_linear_22_985)"/>
<path opacity="0.42" d="M107.347 117.074L93.1095 96.1904H92.2004L106.439 117.074H107.347Z" fill="url(#paint69_linear_22_985)"/>
<path opacity="0.42" d="M108.074 117.074L93.837 96.1904H92.928L107.165 117.074H108.074Z" fill="url(#paint70_linear_22_985)"/>
<path opacity="0.41" d="M108.802 117.074L94.5646 96.1904H93.6555L107.893 117.074H108.802Z" fill="url(#paint71_linear_22_985)"/>
<path opacity="0.4" d="M109.529 117.074L95.2907 96.1904H94.3828L108.62 117.074H109.529Z" fill="url(#paint72_linear_22_985)"/>
<path opacity="0.39" d="M110.257 117.074L96.0183 96.1904H95.1104L109.348 117.074H110.257Z" fill="url(#paint73_linear_22_985)"/>
<path opacity="0.39" d="M110.984 117.074L96.7458 96.1904H95.8379L110.075 117.074H110.984Z" fill="url(#paint74_linear_22_985)"/>
<path opacity="0.38" d="M111.71 117.074L97.4731 96.1904H96.5652L110.802 117.074H111.71Z" fill="url(#paint75_linear_22_985)"/>
<path opacity="0.37" d="M112.438 117.074L98.2006 96.1904H97.2927L111.53 117.074H112.438Z" fill="url(#paint76_linear_22_985)"/>
<path opacity="0.36" d="M113.165 117.074L98.9282 96.1904H98.0203L112.257 117.074H113.165Z" fill="url(#paint77_linear_22_985)"/>
<path opacity="0.36" d="M113.893 117.074L99.6557 96.1904H98.7478L112.985 117.074H113.893Z" fill="url(#paint78_linear_22_985)"/>
<path opacity="0.35" d="M114.62 117.074L100.383 96.1904H99.4751L113.712 117.074H114.62Z" fill="url(#paint79_linear_22_985)"/>
<path opacity="0.34" d="M115.348 117.074L101.111 96.1904H100.203L114.44 117.074H115.348Z" fill="url(#paint80_linear_22_985)"/>
<path opacity="0.33" d="M116.075 117.074L101.838 96.1904H100.93L115.167 117.074H116.075Z" fill="url(#paint81_linear_22_985)"/>
<path opacity="0.33" d="M116.803 117.074L102.565 96.1904H101.657L115.895 117.074H116.803Z" fill="url(#paint82_linear_22_985)"/>
<path opacity="0.32" d="M117.53 117.074L103.293 96.1904H102.385L116.622 117.074H117.53Z" fill="url(#paint83_linear_22_985)"/>
<path opacity="0.31" d="M118.258 117.074L104.02 96.1904H103.111L117.35 117.074H118.258Z" fill="url(#paint84_linear_22_985)"/>
<path opacity="0.31" d="M118.985 117.074L104.748 96.1904H103.839L118.077 117.074H118.985Z" fill="url(#paint85_linear_22_985)"/>
<path opacity="0.3" d="M119.712 117.074L105.475 96.1904H104.566L118.804 117.074H119.712Z" fill="url(#paint86_linear_22_985)"/>
<path opacity="0.29" d="M120.44 117.074L106.203 96.1904H105.294L119.532 117.074H120.44Z" fill="url(#paint87_linear_22_985)"/>
<path opacity="0.28" d="M121.167 117.074L106.93 96.1904H106.021L120.258 117.074H121.167Z" fill="url(#paint88_linear_22_985)"/>
<path opacity="0.28" d="M121.895 117.074L107.658 96.1904H106.749L120.986 117.074H121.895Z" fill="url(#paint89_linear_22_985)"/>
<path opacity="0.27" d="M122.622 117.074L108.384 96.1904H107.476L121.713 117.074H122.622Z" fill="url(#paint90_linear_22_985)"/>
<path opacity="0.26" d="M123.35 117.074L109.112 96.1904H108.204L122.441 117.074H123.35Z" fill="url(#paint91_linear_22_985)"/>
<path opacity="0.25" d="M124.077 117.074L109.839 96.1904H108.931L123.168 117.074H124.077Z" fill="url(#paint92_linear_22_985)"/>
<path opacity="0.25" d="M124.804 117.074L110.566 96.1904H109.658L123.896 117.074H124.804Z" fill="url(#paint93_linear_22_985)"/>
<path opacity="0.24" d="M125.531 117.074L111.294 96.1904H110.386L124.623 117.074H125.531Z" fill="url(#paint94_linear_22_985)"/>
<path opacity="0.23" d="M126.259 117.074L112.021 96.1904H111.114L125.351 117.074H126.259Z" fill="url(#paint95_linear_22_985)"/>
<path opacity="0.22" d="M126.986 117.074L112.749 96.1904H111.841L126.078 117.074H126.986Z" fill="url(#paint96_linear_22_985)"/>
<path opacity="0.22" d="M127.713 117.074L113.476 96.1904H112.568L126.806 117.074H127.713Z" fill="url(#paint97_linear_22_985)"/>
<path opacity="0.21" d="M128.441 117.074L114.204 96.1904H113.296L127.533 117.074H128.441Z" fill="url(#paint98_linear_22_985)"/>
<path opacity="0.2" d="M129.168 117.074L114.931 96.1904H114.023L128.26 117.074H129.168Z" fill="url(#paint99_linear_22_985)"/>
<path opacity="0.19" d="M129.896 117.074L115.659 96.1904H114.751L128.988 117.074H129.896Z" fill="url(#paint100_linear_22_985)"/>
<path opacity="0.19" d="M130.623 117.074L116.386 96.1904H115.478L129.715 117.074H130.623Z" fill="url(#paint101_linear_22_985)"/>
<path opacity="0.18" d="M131.351 117.074L117.114 96.1904H116.205L130.443 117.074H131.351Z" fill="url(#paint102_linear_22_985)"/>
</g>
<path d="M43.5332 77.4941H117.134V96.8213H43.6229L43.5332 77.4941Z" fill="url(#paint103_linear_22_985)"/>
</g>
<path d="M43.6229 13.1689C26.8379 13.1689 13.2295 26.7763 13.2295 43.5624C13.2295 49.3594 14.79 54.7569 17.6056 59.3657L42.9136 96.4482C43.2541 96.9475 43.9895 96.9475 44.33 96.4482L69.638 59.3657C72.4536 54.7569 74.0141 49.3594 74.0141 43.5624C74.0141 26.7763 60.4068 13.1689 43.6207 13.1689H43.6229Z" fill="url(#paint104_linear_22_985)"/>
<path style="mix-blend-mode:lighten" opacity="0.45" d="M43.6229 13.1689C26.8379 13.1689 13.2295 26.7763 13.2295 43.5624C13.2295 49.3594 14.79 54.7569 17.6056 59.3657L42.9136 96.4482C43.2541 96.9475 43.9895 96.9475 44.33 96.4482L69.638 59.3657C72.4536 54.7569 74.0141 49.3594 74.0141 43.5624C74.0141 26.7763 60.4068 13.1689 43.6207 13.1689H43.6229Z" fill="url(#paint105_radial_22_985)"/>
<g style="mix-blend-mode:multiply" opacity="0.07">
<path d="M46.7983 55.1183L41.487 47.4873V55.1183H31.7417V31.457H40.4463L45.7576 39.088V31.457H55.504V55.1183H46.7983Z" fill="white"/>
<path d="M45.7643 39.1073V31.4639H55.4971V55.1127H46.8016L41.4812 47.4681V55.1127H31.7473V31.4639H40.4428L45.7643 39.1073Z" fill="#FEFFFE"/>
<path d="M45.77 39.1268V31.4697H55.4915V55.106H46.805L41.4745 47.449V55.106H31.7542V31.4697H40.4395L45.77 39.1268Z" fill="#FDFFFD"/>
<path d="M45.7768 39.1463V31.4756H55.4857V55.1006H46.8084L41.4687 47.4298V55.1006H31.7598V31.4756H40.4371L45.7768 39.1463Z" fill="#FCFEFC"/>
<path d="M45.7826 39.1656V31.4824H55.4791V55.0949H46.812L41.4632 47.4106V55.0949H31.7656V31.4824H40.4339L45.7826 39.1656Z" fill="#FBFEFC"/>
<path d="M45.7881 39.1841V31.4873H55.4732V55.0873H46.814L41.4562 47.3905V55.0873H31.7722V31.4873H40.4303L45.7881 39.1841Z" fill="#FAFEFB"/>
<path d="M45.7951 39.2047V31.4932H55.4677V55.0818H46.8176L41.4507 47.3714V55.0818H31.7781V31.4932H40.4271L45.7951 39.2047Z" fill="#F9FEFA"/>
<path d="M45.8007 39.224V31.5H55.4609V55.0762H46.821L41.445 47.3521V55.0762H31.7837V31.5H40.4236L45.8007 39.224Z" fill="#F8FEF9"/>
<path d="M45.8064 39.2435V31.5059H55.4552V55.0695H46.8244L41.4382 47.333V55.0695H31.7905V31.5059H40.4214L45.8064 39.2435Z" fill="#F7FEF8"/>
<path d="M45.8131 39.263V31.5117H55.4495V55.0641H46.8277L41.4325 47.3139V55.0641H31.7961V31.5117H40.4179L45.8131 39.263Z" fill="#F6FDF7"/>
<path d="M45.8188 39.2823V31.5186H55.4426V55.0584H46.8299L41.4267 47.2946V55.0584H31.8018V31.5186H40.4144L45.8188 39.2823Z" fill="#F5FDF6"/>
<path d="M45.8245 39.3018V31.5244H55.437V55.0518H46.8334L41.42 47.2755V55.0518H31.8086V31.5244H40.411L45.8245 39.3018Z" fill="#F4FDF6"/>
<path d="M45.8312 39.3203V31.5293H55.4312V55.0453H46.8367L41.4142 47.2554V55.0453H31.8142V31.5293H40.4087L45.8312 39.3203Z" fill="#F3FDF5"/>
<path d="M45.8371 39.3396V31.5361H55.4246V55.0397H46.8403L41.4087 47.2362V55.0397H31.8201V31.5361H40.4055L45.8371 39.3396Z" fill="#F2FDF4"/>
<path d="M45.8428 39.3591V31.542H55.419V55.033H46.8426L41.402 47.2171V55.033H31.8269V31.542H40.4021L45.8428 39.3591Z" fill="#F1FCF3"/>
<path d="M45.8495 39.3786V31.5479H55.4132V55.0276H46.846L41.3962 47.198V55.0276H31.8325V31.5479H40.3987L45.8495 39.3786Z" fill="#F0FCF2"/>
<path d="M45.8551 39.3979V31.5547H55.4064V55.0219H46.8493L41.3905 47.1787V55.0219H31.8381V31.5547H40.3952L45.8551 39.3979Z" fill="#EFFCF1"/>
<path d="M45.8608 39.4174V31.5605H55.4007V55.0153H46.8527L41.3837 47.1596V55.0153H31.845V31.5605H40.393L45.8608 39.4174Z" fill="#EEFCF1"/>
<path d="M45.8676 39.4369V31.5664H55.395V55.0098H46.8561L41.378 47.1405V55.0098H31.8506V31.5664H40.3895L45.8676 39.4369Z" fill="#EDFCF0"/>
<path d="M45.8732 39.4562V31.5732H55.3881V55.0041H46.8583L41.3722 47.1212V55.0041H31.8562V31.5732H40.386L45.8732 39.4562Z" fill="#ECFCEF"/>
<path d="M45.8789 39.4747V31.5781H55.3825V54.9965H46.8617L41.3655 47.1011V54.9965H31.863V31.5781H40.3826L45.8789 39.4747Z" fill="#EBFBEE"/>
<path d="M45.8859 39.4942V31.584H55.377V54.9911H46.8653L41.36 47.082V54.9911H31.8689V31.584H40.3794L45.8859 39.4942Z" fill="#EAFBED"/>
<path d="M45.8915 39.5135V31.5908H55.3701V54.9854H46.8687L41.3542 47.0628V54.9854H31.8745V31.5908H40.3771L45.8915 39.5135Z" fill="#E9FBEC"/>
<path d="M45.8972 39.533V31.5967H55.3645V54.9788H46.8721L41.3475 47.0436V54.9788H31.8813V31.5967H40.3737L45.8972 39.533Z" fill="#E8FBEB"/>
<path d="M45.904 39.5524V31.6025H55.3587V54.9733H46.8743L41.3417 47.0245V54.9733H31.887V31.6025H40.3703L45.904 39.5524Z" fill="#E7FBEB"/>
<path d="M45.9096 39.5718V31.6094H55.3519V54.9676H46.8776L41.3349 47.0053V54.9676H31.8926V31.6094H40.3668L45.9096 39.5718Z" fill="#E6FAEA"/>
<path d="M45.9153 39.5912V31.6152H55.3462V54.961H46.8811L41.3292 46.9862V54.961H31.8994V31.6152H40.3645L45.9153 39.5912Z" fill="#E5FAE9"/>
<path d="M45.922 39.6097V31.6201H55.3405V54.9546H46.8844L41.3235 46.9661V54.9546H31.905V31.6201H40.3611L45.922 39.6097Z" fill="#E4FAE8"/>
<path d="M45.9279 39.629V31.627H55.3338V54.9489H46.888L41.3168 46.9468V54.9489H31.9109V31.627H40.3579L45.9279 39.629Z" fill="#E3FAE7"/>
<path d="M45.9336 39.6485V31.6328H55.3282V54.9423H46.8903L41.3112 46.9277V54.9423H31.9177V31.6328H40.3545L45.9336 39.6485Z" fill="#E2FAE6"/>
<path d="M45.9403 39.668V31.6387H55.3225V54.9368H46.8937L41.3055 46.9086V54.9368H31.9233V31.6387H40.351L45.9403 39.668Z" fill="#E1FAE5"/>
<path d="M45.946 39.6873V31.6455H55.3156V54.9311H46.897L41.2986 46.8893V54.9311H31.929V31.6455H40.3487L45.946 39.6873Z" fill="#E0F9E5"/>
<path d="M45.9517 39.7068V31.6514H55.3099V54.9245H46.9004L41.2929 46.8702V54.9245H31.9358V31.6514H40.3453L45.9517 39.7068Z" fill="#DFF9E4"/>
<path d="M45.9584 39.7263V31.6572H55.3042V54.919H46.9026L41.2872 46.85V54.919H31.9414V31.6572H40.3419L45.9584 39.7263Z" fill="#DEF9E3"/>
<path d="M45.964 39.7456V31.6641H55.2973V54.9134H46.906L41.2803 46.8307V54.9134H31.947V31.6641H40.3384L45.964 39.7456Z" fill="#DDF9E2"/>
<path d="M45.9697 39.7641V31.6689H55.2917V54.9058H46.9094L41.2747 46.8106V54.9058H31.9539V31.6689H40.335L45.9697 39.7641Z" fill="#DCF9E1"/>
<path d="M45.9765 39.7836V31.6748H55.286V54.9003H46.9128L41.269 46.7915V54.9003H31.9595V31.6748H40.3327L45.9765 39.7836Z" fill="#DBF9E0"/>
<path d="M45.9823 39.8029V31.6816H55.2793V54.8946H46.9164L41.2623 46.7723V54.8946H31.9653V31.6816H40.3295L45.9823 39.8029Z" fill="#DAF8E0"/>
<path d="M45.988 39.8224V31.6875H55.2737V54.888H46.9186L41.2567 46.7531V54.888H31.9722V31.6875H40.3261L45.988 39.8224Z" fill="#D9F8DF"/>
<path d="M45.9948 39.8419V31.6934H55.268V54.8825H46.922L41.251 46.734V54.8825H31.9778V31.6934H40.3226L45.9948 39.8419Z" fill="#D8F8DE"/>
<path d="M46.0004 39.8612V31.7002H55.2611V54.8769H46.9253L41.2441 46.7148V54.8769H31.9834V31.7002H40.3192L46.0004 39.8612Z" fill="#D7F8DD"/>
<path d="M46.0061 39.8807V31.7061H55.2554V54.8703H46.9288L41.2384 46.6957V54.8703H31.9902V31.7061H40.3169L46.0061 39.8807Z" fill="#D6F8DC"/>
<path d="M46.0129 39.8992V31.7109H55.2497V54.8638H46.9321L41.2327 46.6756V54.8638H31.9958V31.7109H40.3134L46.0129 39.8992Z" fill="#D5F7DB"/>
<path d="M46.0185 39.9185V31.7178H55.2428V54.8581H46.9343L41.2258 46.6563V54.8581H32.0015V31.7178H40.31L46.0185 39.9185Z" fill="#D4F7DA"/>
<path d="M46.0242 39.938V31.7236H55.2372V54.8515H46.9378L41.2202 46.6372V54.8515H32.0083V31.7236H40.3066L46.0242 39.938Z" fill="#D3F7DA"/>
<path d="M46.0312 39.9574V31.7295H55.2317V54.846H46.9413L41.2147 46.6181V54.846H32.0142V31.7295H40.3045L46.0312 39.9574Z" fill="#D2F7D9"/>
<path d="M46.0368 39.9768V31.7363H55.2248V54.8404H46.9447L41.2078 46.5988V54.8404H32.0198V31.7363H40.3011L46.0368 39.9768Z" fill="#D1F7D8"/>
<path d="M46.0425 39.9962V31.7422H55.2192V54.8338H46.947L41.2022 46.5797V54.8338H32.0266V31.7422H40.2977L46.0425 39.9962Z" fill="#D0F7D7"/>
<path d="M46.0492 40.0157V31.748H55.2135V54.8283H46.9503L41.1964 46.5606V54.8283H32.0322V31.748H40.2942L46.0492 40.0157Z" fill="#CFF6D6"/>
<path d="M46.0548 40.034V31.7539H55.2066V54.8205H46.9537L41.1896 46.5404V54.8205H32.0378V31.7539H40.2908L46.0548 40.034Z" fill="#CEF6D5"/>
<path d="M46.0605 40.0535V31.7598H55.2009V54.815H46.9571L41.1839 46.5213V54.815H32.0447V31.7598H40.2885L46.0605 40.0535Z" fill="#CDF6D4"/>
<path d="M46.0673 40.0728V31.7666H55.1941V54.8094H46.9605L41.1782 46.502V54.8094H32.0503V31.7666H40.285L46.0673 40.0728Z" fill="#CCF6D4"/>
<path d="M46.073 40.0923V31.7725H55.1884V54.8027H46.9628L41.1714 46.4829V54.8027H32.0571V31.7725H40.2817L46.073 40.0923Z" fill="#CBF6D3"/>
<path d="M46.0789 40.1118V31.7783H55.1829V54.7973H46.9663L41.1659 46.4638V54.7973H32.063V31.7783H40.2784L46.0789 40.1118Z" fill="#CAF5D2"/>
<path d="M46.0856 40.1311V31.7852H55.1761V54.7916H46.9697L41.1602 46.4445V54.7916H32.0686V31.7852H40.275L46.0856 40.1311Z" fill="#C9F5D1"/>
<path d="M46.0913 40.1506V31.791H55.1704V54.785H46.9731L41.1534 46.4254V54.785H32.0754V31.791H40.2727L46.0913 40.1506Z" fill="#C8F5D0"/>
<path d="M46.0969 40.1691V31.7959H55.1647V54.7785H46.9765L41.1477 46.4053V54.7785H32.0811V31.7959H40.2693L46.0969 40.1691Z" fill="#C7F5CF"/>
<path d="M46.1037 40.1884V31.8027H55.1578V54.7729H46.9787L41.1419 46.386V54.7729H32.0867V31.8027H40.2658L46.1037 40.1884Z" fill="#C6F5CE"/>
<path d="M46.1094 40.2079V31.8086H55.1522V54.7662H46.9821L41.1352 46.3669V54.7662H32.0935V31.8086H40.2624L46.1094 40.2079Z" fill="#C5F5CE"/>
<path d="M46.115 40.2274V31.8145H55.1464V54.7608H46.9854L41.1294 46.3478V54.7608H32.0991V31.8145H40.2601L46.115 40.2274Z" fill="#C4F4CD"/>
<path d="M46.122 40.2467V31.8213H55.1398V54.7551H46.989L41.1239 46.3286V54.7551H32.105V31.8213H40.2569L46.122 40.2467Z" fill="#C3F4CC"/>
<path d="M46.1274 40.2662V31.8271H55.1339V54.7485H46.9922L41.1169 46.3095V54.7485H32.1116V31.8271H40.2533L46.1274 40.2662Z" fill="#C2F4CB"/>
<path d="M46.1344 40.2857V31.833H55.1284V54.743H46.9947L41.1114 46.2903V54.743H32.1174V31.833H40.25L46.1344 40.2857Z" fill="#C1F4CA"/>
<path d="M46.1401 40.305V31.8398H55.1216V54.7374H46.998L41.1057 46.2711V54.7374H32.123V31.8398H40.2466L46.1401 40.305Z" fill="#C0F4C9"/>
<path d="M46.1458 40.3235V31.8447H55.1159V54.7298H47.0015L41.0989 46.251V54.7298H32.1299V31.8447H40.2443L46.1458 40.3235Z" fill="#BFF3C9"/>
<path d="M46.1525 40.343V31.8506H55.1102V54.7243H47.0048L41.0932 46.2319V54.7243H32.1355V31.8506H40.2409L46.1525 40.343Z" fill="#BEF3C8"/>
<path d="M46.1581 40.3623V31.8574H55.1033V54.7186H47.007L41.0874 46.2126V54.7186H32.1411V31.8574H40.2374L46.1581 40.3623Z" fill="#BDF3C7"/>
<path d="M46.1638 40.3818V31.8633H55.0977V54.712H47.0104L41.0807 46.1935V54.712H32.1479V31.8633H40.234L46.1638 40.3818Z" fill="#BCF3C6"/>
<path d="M46.1706 40.4012V31.8691H55.0919V54.7065H47.0138L41.0749 46.1744V54.7065H32.1536V31.8691H40.2306L46.1706 40.4012Z" fill="#BBF3C5"/>
<path d="M46.1764 40.4205V31.876H55.0853V54.7008H47.0174L41.0694 46.1551V54.7008H32.1594V31.876H40.2285L46.1764 40.4205Z" fill="#BAF3C4"/>
<path d="M46.1821 40.44V31.8818H55.0797V54.6942H47.0208L41.0626 46.136V54.6942H32.1663V31.8818H40.2251L46.1821 40.44Z" fill="#B9F2C3"/>
<path d="M46.1889 40.4585V31.8867H55.0739V54.6878H47.023L41.0569 46.1159V54.6878H32.1719V31.8867H40.2216L46.1889 40.4585Z" fill="#B8F2C3"/>
<path d="M46.1945 40.4778V31.8936H55.0671V54.6821H47.0264L41.0512 46.0967V54.6821H32.1775V31.8936H40.2182L46.1945 40.4778Z" fill="#B7F2C2"/>
<path d="M46.2002 40.4973V31.8994H55.0614V54.6755H47.0298L41.0444 46.0776V54.6755H32.1843V31.8994H40.2148L46.2002 40.4973Z" fill="#B6F2C1"/>
<path d="M46.2069 40.5168V31.9053H55.0557V54.67H47.0331L41.0387 46.0585V54.67H32.1899V31.9053H40.2125L46.2069 40.5168Z" fill="#B5F2C0"/>
<path d="M46.2126 40.5361V31.9121H55.0488V54.6644H47.0365L41.0329 46.0392V54.6644H32.1956V31.9121H40.209L46.2126 40.5361Z" fill="#B4F1BF"/>
<path d="M46.2183 40.5556V31.918H55.0432V54.6577H47.0388L41.0261 46.0201V54.6577H32.2024V31.918H40.2056L46.2183 40.5556Z" fill="#B3F1BE"/>
<path d="M46.2253 40.5751V31.9238H55.0377V54.6522H47.0424L41.0207 46.001V54.6522H32.2083V31.9238H40.2024L46.2253 40.5751Z" fill="#B2F1BD"/>
<path d="M46.2309 40.5944V31.9307H55.0308V54.6466H47.0457L41.0149 45.9817V54.6466H32.2139V31.9307H40.2001L46.2309 40.5944Z" fill="#B1F1BD"/>
<path d="M46.2366 40.614V31.9355H55.0251V54.639H47.0492L41.0081 45.9616V54.639H32.2207V31.9355H40.1967L46.2366 40.614Z" fill="#B0F1BC"/>
<path d="M46.2433 40.6335V31.9414H55.0194V54.6335H47.0525L41.0024 45.9425V54.6335H32.2263V31.9414H40.1932L46.2433 40.6335Z" fill="#AFF1BB"/>
<path d="M46.2489 40.6528V31.9482H55.0125V54.6278H47.0547L40.9967 45.9233V54.6278H32.2319V31.9482H40.1898L46.2489 40.6528Z" fill="#AEF0BA"/>
<path d="M46.2546 40.6723V31.9541H55.0069V54.6212H47.0581L40.9899 45.9041V54.6212H32.2388V31.9541H40.1864L46.2546 40.6723Z" fill="#ADF0B9"/>
<path d="M46.2614 40.6918V31.96H55.0012V54.6157H47.0615L40.9842 45.885V54.6157H32.2444V31.96H40.1841L46.2614 40.6918Z" fill="#ACF0B8"/>
<path d="M46.2673 40.7111V31.9668H54.9945V54.6101H47.0651L40.9787 45.8658V54.6101H32.2502V31.9668H40.1808L46.2673 40.7111Z" fill="#ABF0B8"/>
<path d="M46.2727 40.7306V31.9727H54.9887V54.6035H47.0671L40.9716 45.8467V54.6035H32.2568V31.9727H40.1772L46.2727 40.7306Z" fill="#AAF0B7"/>
<path d="M46.2797 40.7491V31.9775H54.9832V54.597H47.0707L40.9662 45.8266V54.597H32.2627V31.9775H40.174L46.2797 40.7491Z" fill="#A9EFB6"/>
<path d="M46.2853 40.7684V31.9844H54.9763V54.5914H47.0741L40.9604 45.8073V54.5914H32.2683V31.9844H40.1705L46.2853 40.7684Z" fill="#A8EFB5"/>
<path d="M46.291 40.7879V31.9902H54.9706V54.5847H47.0775L40.9536 45.7882V54.5847H32.2751V31.9902H40.1683L46.291 40.7879Z" fill="#A7EFB4"/>
<path d="M46.2978 40.8074V31.9961H54.9649V54.5792H47.0808L40.9479 45.7691V54.5792H32.2808V31.9961H40.1648L46.2978 40.8074Z" fill="#A6EFB3"/>
<path d="M46.3034 40.8267V32.0029H54.958V54.5736H47.0831L40.941 45.7498V54.5736H32.2864V32.0029H40.1614L46.3034 40.8267Z" fill="#A5EFB2"/>
<path d="M46.3091 40.8462V32.0088H54.9524V54.567H47.0865L40.9354 45.7307V54.567H32.2932V32.0088H40.158L46.3091 40.8462Z" fill="#A4EFB2"/>
<path d="M46.3158 40.8656V32.0146H54.9467V54.5615H47.0898L40.9297 45.7116V54.5615H32.2988V32.0146H40.1557L46.3158 40.8656Z" fill="#A3EEB1"/>
<path d="M46.3217 40.885V32.0215H54.94V54.5558H47.0934L40.923 45.6923V54.5558H32.3047V32.0215H40.1524L46.3217 40.885Z" fill="#A2EEB0"/>
<path d="M46.3274 40.9035V32.0264H54.9344V54.5482H47.0968L40.9174 45.6723V54.5482H32.3115V32.0264H40.1491L46.3274 40.9035Z" fill="#A1EEAF"/>
<path d="M46.3341 40.9229V32.0322H54.9287V54.5427H47.0991L40.9116 45.6532V54.5427H32.3171V32.0322H40.1456L46.3341 40.9229Z" fill="#A0EEAE"/>
<path d="M46.3398 40.9423V32.0391H54.9218V54.5371H47.1024L40.9048 45.6339V54.5371H32.3228V32.0391H40.1421L46.3398 40.9423Z" fill="#9FEEAD"/>
<path d="M46.3455 40.9617V32.0449H54.9161V54.5305H47.1058L40.8991 45.6148V54.5305H32.3296V32.0449H40.1399L46.3455 40.9617Z" fill="#9EEEAC"/>
<path d="M46.3522 40.9812V32.0508H54.9104V54.525H47.1092L40.8934 45.5957V54.525H32.3352V32.0508H40.1364L46.3522 40.9812Z" fill="#9DEDAC"/>
<path d="M46.3578 41.0005V32.0576H54.9035V54.5193H47.1125L40.8865 45.5764V54.5193H32.3408V32.0576H40.133L46.3578 41.0005Z" fill="#9CEDAB"/>
<path d="M46.3635 41.02V32.0635H54.8979V54.5127H47.1148L40.8809 45.5573V54.5127H32.3477V32.0635H40.1296L46.3635 41.02Z" fill="#9BEDAA"/>
<path d="M46.3705 41.0385V32.0684H54.8924V54.5062H47.1184L40.8754 45.5372V54.5062H32.3535V32.0684H40.1264L46.3705 41.0385Z" fill="#9AEDA9"/>
<path d="M46.3761 41.0578V32.0752H54.8855V54.5006H47.1218L40.8685 45.5179V54.5006H32.3591V32.0752H40.124L46.3761 41.0578Z" fill="#99EDA8"/>
<path d="M46.3818 41.0773V32.0811H54.8799V54.494H47.1252L40.8629 45.4988V54.494H32.366V32.0811H40.1207L46.3818 41.0773Z" fill="#98ECA7"/>
<path d="M46.3886 41.0968V32.0869H54.8741V54.4885H47.1274L40.8571 45.4797V54.4885H32.3716V32.0869H40.1172L46.3886 41.0968Z" fill="#97ECA6"/>
<path d="M46.3942 41.1161V32.0938H54.8673V54.4828H47.1307L40.8503 45.4605V54.4828H32.3772V32.0938H40.1137L46.3942 41.1161Z" fill="#96ECA6"/>
<path d="M46.3999 41.1356V32.0996H54.8616V54.4762H47.1342L40.8446 45.4402V54.4762H32.384V32.0996H40.1104L46.3999 41.1356Z" fill="#95ECA5"/>
<path d="M46.4067 41.1551V32.1055H54.8559V54.4707H47.1375L40.8389 45.4211V54.4707H32.3896V32.1055H40.108L46.4067 41.1551Z" fill="#94ECA4"/>
<path d="M46.4125 41.1744V32.1123H54.8493V54.4651H47.1411L40.8323 45.4018V54.4651H32.3955V32.1123H40.1048L46.4125 41.1744Z" fill="#93ECA3"/>
<path d="M46.418 41.1929V32.1172H54.8434V54.4575H47.1432L40.8264 45.3818V54.4575H32.4021V32.1172H40.1012L46.418 41.1929Z" fill="#92EBA2"/>
<path d="M46.425 41.2124V32.123H54.8368V54.452H47.1468L40.8209 45.3627V54.452H32.408V32.123H40.098L46.425 41.2124Z" fill="#91EBA1"/>
<path d="M46.4306 41.2317V32.1299H54.831V54.4463H47.1501L40.814 45.3434V54.4463H32.4136V32.1299H40.0956L46.4306 41.2317Z" fill="#90EBA1"/>
<path d="M46.4363 41.2512V32.1357H54.8254V54.4397H47.1535L40.8084 45.3243V54.4397H32.4204V32.1357H40.0923L46.4363 41.2512Z" fill="#8FEBA0"/>
<path d="M46.443 41.2706V32.1416H54.8185V54.4342H47.1569L40.8026 45.3052V54.4342H32.426V32.1416H40.0888L46.443 41.2706Z" fill="#8EEB9F"/>
<path d="M46.4487 41.29V32.1484H54.8129V54.4274H47.1592L40.7959 45.2859V54.4274H32.4329V32.1484H40.0854L46.4487 41.29Z" fill="#8DEA9E"/>
<path d="M46.4543 41.3094V32.1543H54.8071V54.4219H47.1625L40.7901 45.2668V54.4219H32.4385V32.1543H40.082L46.4543 41.3094Z" fill="#8CEA9D"/>
<path d="M46.4611 41.3288V32.1611H54.8003V54.4163H47.1659L40.7844 45.2475V54.4163H32.4441V32.1611H40.0796L46.4611 41.3288Z" fill="#8BEA9C"/>
<path d="M46.4668 41.3473V32.166H54.7946V54.4087H47.1693L40.7776 45.2274V54.4087H32.4509V32.166H40.0762L46.4668 41.3473Z" fill="#8AEA9B"/>
<path d="M46.4738 41.3667V32.1719H54.7891V54.4032H47.1717L40.7721 45.2083V54.4032H32.4568V32.1719H40.073L46.4738 41.3667Z" fill="#89EA9B"/>
<path d="M46.4794 41.3861V32.1787H54.7823V54.3976H47.1751L40.7664 45.1891V54.3976H32.4624V32.1787H40.0696L46.4794 41.3861Z" fill="#88EA9A"/>
<path d="M46.4851 41.4055V32.1846H54.7766V54.3909H47.1785L40.7596 45.17V54.3909H32.4692V32.1846H40.0662L46.4851 41.4055Z" fill="#87E999"/>
<path d="M46.4919 41.425V32.1904H54.7709V54.3854H47.1819L40.7539 45.1509V54.3854H32.4749V32.1904H40.0639L46.4919 41.425Z" fill="#86E998"/>
<path d="M46.4975 41.4443V32.1973H54.764V54.3798H47.1852L40.7481 45.1316V54.3798H32.4805V32.1973H40.0604L46.4975 41.4443Z" fill="#85E997"/>
<path d="M46.5032 41.4638V32.2031H54.7584V54.3732H47.1875L40.7413 45.1125V54.3732H32.4873V32.2031H40.057L46.5032 41.4638Z" fill="#84E996"/>
<path d="M46.5099 41.4823V32.208H54.7526V54.3667H47.1909L40.7356 45.0924V54.3667H32.4929V32.208H40.0535L46.5099 41.4823Z" fill="#83E995"/>
<path d="M46.5158 41.5016V32.2148H54.746V54.3611H47.1944L40.7301 45.0731V54.3611H32.4988V32.2148H40.0515L46.5158 41.5016Z" fill="#82E895"/>
<path d="M46.5212 41.5211V32.2207H54.7401V54.3544H47.1976L40.7231 45.054V54.3544H32.5054V32.2207H40.0478L46.5212 41.5211Z" fill="#81E894"/>
<path d="M46.5282 41.5406V32.2266H54.7346V54.3489H47.2012L40.7176 45.0349V54.3489H32.5112V32.2266H40.0446L46.5282 41.5406Z" fill="#80E893"/>
<path d="M46.5339 41.5599V32.2334H54.7277V54.3433H47.2034L40.7119 45.0156V54.3433H32.5168V32.2334H40.0412L46.5339 41.5599Z" fill="#7FE892"/>
<path d="M46.5396 41.5794V32.2393H54.7221V54.3367H47.2069L40.7051 44.9965V54.3367H32.5237V32.2393H40.0378L46.5396 41.5794Z" fill="#7EE891"/>
<path d="M46.5463 41.5989V32.2451H54.7164V54.3312H47.2102L40.6994 44.9774V54.3312H32.5293V32.2451H40.0354L46.5463 41.5989Z" fill="#7DE890"/>
<path d="M46.5519 41.6172V32.251H54.7095V54.3246H47.2136L40.6936 44.9572V54.3246H32.5349V32.251H40.032L46.5519 41.6172Z" fill="#7CE790"/>
<path d="M46.5576 41.6367V32.2568H54.7038V54.3179H47.217L40.6868 44.9381V54.3179H32.5417V32.2568H40.0286L46.5576 41.6367Z" fill="#7BE78F"/>
<path d="M46.5644 41.6562V32.2627H54.6981V54.3124H47.2192L40.6811 44.919V54.3124H32.5474V32.2627H40.0251L46.5644 41.6562Z" fill="#7AE78E"/>
<path d="M46.5702 41.6755V32.2695H54.6915V54.3068H47.2228L40.6756 44.8997V54.3068H32.5532V32.2695H40.0219L46.5702 41.6755Z" fill="#79E78D"/>
<path d="M46.5759 41.695V32.2754H54.6858V54.3002H47.2262L40.6688 44.8806V54.3002H32.5601V32.2754H40.0197L46.5759 41.695Z" fill="#78E78C"/>
<path d="M46.5827 41.7144V32.2812H54.6801V54.2947H47.2296L40.6631 44.8615V54.2947H32.5657V32.2812H40.0162L46.5827 41.7144Z" fill="#77E68B"/>
<path d="M46.5883 41.7338V32.2881H54.6732V54.289H47.2318L40.6574 44.8422V54.289H32.5713V32.2881H40.0127L46.5883 41.7338Z" fill="#76E68A"/>
<path d="M46.594 41.7523V32.293H54.6676V54.2814H47.2352L40.6506 44.8221V54.2814H32.5781V32.293H40.0094L46.594 41.7523Z" fill="#75E68A"/>
<path d="M46.6007 41.7717V32.2988H54.6619V54.2759H47.2386L40.6449 44.803V54.2759H32.5837V32.2988H40.0059L46.6007 41.7717Z" fill="#74E689"/>
<path d="M46.6064 41.7911V32.3057H54.655V54.2703H47.2419L40.6391 44.7838V54.2703H32.5894V32.3057H40.0036L46.6064 41.7911Z" fill="#73E688"/>
<path d="M46.6121 41.8105V32.3115H54.6493V54.2637H47.2453L40.6323 44.7646V54.2637H32.5962V32.3115H40.0002L46.6121 41.8105Z" fill="#72E687"/>
<path d="M46.6191 41.83V32.3174H54.6439V54.2582H47.2478L40.6268 44.7455V54.2582H32.6021V32.3174H39.997L46.6191 41.83Z" fill="#71E586"/>
<path d="M46.6247 41.8493V32.3242H54.637V54.2525H47.2511L40.6211 44.7263V54.2525H32.6077V32.3242H39.9935L46.6247 41.8493Z" fill="#70E585"/>
<path d="M46.6304 41.8688V32.3301H54.6313V54.2459H47.2546L40.6143 44.7072V54.2459H32.6145V32.3301H39.9913L46.6304 41.8688Z" fill="#6FE584"/>
<path d="M46.6371 41.8873V32.335H54.6256V54.2394H47.2579L40.6086 44.6871V54.2394H32.6201V32.335H39.9878L46.6371 41.8873Z" fill="#6EE584"/>
<path d="M46.6427 41.9066V32.3418H54.6187V54.2338H47.2613L40.6029 44.6678V54.2338H32.6257V32.3418H39.9843L46.6427 41.9066Z" fill="#6DE583"/>
<path d="M46.6484 41.9261V32.3477H54.6131V54.2272H47.2635L40.5961 44.6487V54.2272H32.6326V32.3477H39.981L46.6484 41.9261Z" fill="#6CE482"/>
<path d="M46.6552 41.9456V32.3535H54.6073V54.2217H47.2669L40.5903 44.6296V54.2217H32.6382V32.3535H39.9775L46.6552 41.9456Z" fill="#6BE481"/>
<path d="M46.661 41.9649V32.3604H54.6007V54.216H47.2705L40.5849 44.6103V54.216H32.644V32.3604H39.9754L46.661 41.9649Z" fill="#6AE480"/>
<path d="M46.6665 41.9844V32.3662H54.5948V54.2094H47.2737L40.5778 44.5912V54.2094H32.6506V32.3662H39.9718L46.6665 41.9844Z" fill="#69E47F"/>
<path d="M46.6735 42.005V32.3721H54.5893V54.2039H47.2773L40.5723 44.5721V54.2039H32.6565V32.3721H39.9686L46.6735 42.005Z" fill="#68E47F"/>
<path d="M46.6791 42.0243V32.3789H54.5825V54.1983H47.2795L40.5666 44.5529V54.1983H32.6621V32.3789H39.9651L46.6791 42.0243Z" fill="#67E47E"/>
<path d="M46.6848 42.0428V32.3838H54.5768V54.1907H47.2829L40.5598 44.5328V54.1907H32.6689V32.3838H39.9617L46.6848 42.0428Z" fill="#66E37D"/>
<path d="M46.6916 42.0623V32.3896H54.5711V54.1852H47.2862L40.5541 44.5137V54.1852H32.6746V32.3896H39.9594L46.6916 42.0623Z" fill="#65E37C"/>
<path d="M46.6972 42.0816V32.3965H54.5642V54.1795H47.2896L40.5472 44.4944V54.1795H32.6802V32.3965H39.9559L46.6972 42.0816Z" fill="#64E37B"/>
<path d="M46.7029 42.1011V32.4023H54.5586V54.1729H47.2919L40.5416 44.4753V54.1729H32.687V32.4023H39.9526L46.7029 42.1011Z" fill="#63E37A"/>
<path d="M46.7096 42.1206V32.4082H54.5528V54.1674H47.2952L40.5358 44.4562V54.1674H32.6926V32.4082H39.9491L46.7096 42.1206Z" fill="#62E379"/>
<path d="M46.7155 42.1399V32.415H54.5462V54.1618H47.2988L40.5292 44.4369V54.1618H32.6985V32.415H39.947L46.7155 42.1399Z" fill="#61E279"/>
<path d="M46.7212 42.1594V32.4209H54.5406V54.1551H47.3023L40.5236 44.4178V54.1551H32.7053V32.4209H39.9436L46.7212 42.1594Z" fill="#60E278"/>
<path d="M46.7279 42.1779V32.4258H54.5348V54.1487H47.3056L40.5178 44.3977V54.1487H32.7109V32.4258H39.9402L46.7279 42.1779Z" fill="#5FE277"/>
<path d="M46.7336 42.1972V32.4326H54.528V54.143H47.3078L40.511 44.3785V54.143H32.7166V32.4326H39.9367L46.7336 42.1972Z" fill="#5EE276"/>
<path d="M46.7393 42.2167V32.4385H54.5223V54.1364H47.3112L40.5053 44.3593V54.1364H32.7234V32.4385H39.9333L46.7393 42.2167Z" fill="#5DE275"/>
<path d="M46.746 42.2362V32.4443H54.5166V54.1309H47.3146L40.4996 44.3402V54.1309H32.729V32.4443H39.931L46.746 42.2362Z" fill="#5CE274"/>
<path d="M46.7516 42.2555V32.4512H54.5097V54.1253H47.3179L40.4927 44.321V54.1253H32.7346V32.4512H39.9275L46.7516 42.2555Z" fill="#5BE173"/>
<path d="M46.7573 42.275V32.457H54.5041V54.1186H47.3214L40.4871 44.3019V54.1186H32.7415V32.457H39.9242L46.7573 42.275Z" fill="#5AE173"/>
<path d="M46.7643 42.2944V32.4629H54.4986V54.1132H47.3238L40.4816 44.2828V54.1132H32.7473V32.4629H39.9209L46.7643 42.2944Z" fill="#59E172"/>
<path d="M46.7699 42.3138V32.4697H54.4917V54.1075H47.3272L40.4747 44.2635V54.1075H32.7529V32.4697H39.9175L46.7699 42.3138Z" fill="#58E171"/>
<path d="M46.7756 42.3322V32.4746H54.4861V54.0999H47.3306L40.4691 44.2434V54.0999H32.7598V32.4746H39.9152L46.7756 42.3322Z" fill="#57E170"/>
<path d="M46.7824 42.3517V32.4805H54.4792V54.0944H47.3339L40.4633 44.2243V54.0944H32.7654V32.4805H39.9118L46.7824 42.3517Z" fill="#56E16F"/>
<path d="M46.788 42.371V32.4873H54.4735V54.0888H47.3373L40.4565 44.205V54.0888H32.771V32.4873H39.9083L46.788 42.371Z" fill="#55E06E"/>
<path d="M46.7937 42.3905V32.4932H54.4678V54.0821H47.3396L40.4508 44.1859V54.0821H32.7778V32.4932H39.9049L46.7937 42.3905Z" fill="#54E06D"/>
<path d="M46.8005 42.41V32.499H54.4609V54.0767H47.3429L40.4451 44.1668V54.0767H32.7834V32.499H39.9015L46.8005 42.41Z" fill="#53E06D"/>
<path d="M46.8063 42.4293V32.5059H54.4555V54.071H47.3465L40.4385 44.1475V54.071H32.7893V32.5059H39.8994L46.8063 42.4293Z" fill="#52E06C"/>
<path d="M46.8129 42.4488V32.5117H54.4496V54.0644H47.3497L40.4326 44.1284V54.0644H32.7959V32.5117H39.8958L46.8129 42.4488Z" fill="#51E06B"/>
<path d="M46.8188 42.4673V32.5166H54.4429V54.0579H47.3522L40.4271 44.1083V54.0579H32.8018V32.5166H39.8925L46.8188 42.4673Z" fill="#50DF6A"/>
<path d="M46.8245 42.4866V32.5234H54.4373V54.0523H47.3556L40.4203 44.0891V54.0523H32.8086V32.5234H39.8892L46.8245 42.4866Z" fill="#4FDF69"/>
<path d="M46.8312 42.5061V32.5293H54.4316V54.0456H47.3589L40.4146 44.07V54.0456H32.8142V32.5293H39.8868L46.8312 42.5061Z" fill="#4EDF68"/>
<path d="M46.8368 42.5256V32.5352H54.4247V54.0402H47.3623L40.4088 44.0497V54.0402H32.8198V32.5352H39.8834L46.8368 42.5256Z" fill="#4DDF68"/>
<path d="M46.8425 42.5449V32.542H54.419V54.0345H47.3657L40.402 44.0305V54.0345H32.8267V32.542H39.88L46.8425 42.5449Z" fill="#4CDF67"/>
<path d="M46.8493 42.5644V32.5479H54.4133V54.0279H47.3679L40.3963 44.0114V54.0279H32.8323V32.5479H39.8765L46.8493 42.5644Z" fill="#4BDF66"/>
<path d="M46.8549 42.5837V32.5547H54.4064V54.0222H47.3713L40.3906 43.9921V54.0222H32.8379V32.5547H39.8731L46.8549 42.5837Z" fill="#4ADE65"/>
<path d="M46.8606 42.6032V32.5605H54.4008V54.0156H47.3747L40.3838 43.973V54.0156H32.8447V32.5605H39.8708L46.8606 42.6032Z" fill="#49DE64"/>
<path d="M46.8676 42.6217V32.5654H54.3953V54.0091H47.3783L40.3783 43.9529V54.0091H32.8506V32.5654H39.8676L46.8676 42.6217Z" fill="#48DE63"/>
<path d="M46.8732 42.641V32.5723H54.3884V54.0035H47.3816L40.3726 43.9336V54.0035H32.8562V32.5723H39.8641L46.8732 42.641Z" fill="#47DE62"/>
<path d="M46.8789 42.6605V32.5781H54.3828V53.9969H47.3839L40.3658 43.9145V53.9969H32.863V32.5781H39.8608L46.8789 42.6605Z" fill="#46DE62"/>
<path d="M46.8857 42.6799V32.584H54.3771V53.9914H47.3873L40.36 43.8954V53.9914H32.8687V32.584H39.8573L46.8857 42.6799Z" fill="#45DD61"/>
<path d="M46.8913 42.6993V32.5908H54.3702V53.9857H47.3906L40.3543 43.8762V53.9857H32.8743V32.5908H39.855L46.8913 42.6993Z" fill="#44DD60"/>
<path d="M46.897 42.7187V32.5967H54.3645V53.9791H47.3941L40.3475 43.857V53.9791H32.8811V32.5967H39.8516L46.897 42.7187Z" fill="#43DD5F"/>
<path d="M46.9037 42.7382V32.6025H54.3588V53.9736H47.3963L40.3418 43.8379V53.9736H32.8867V32.6025H39.8481L46.9037 42.7382Z" fill="#42DD5E"/>
<path d="M46.9096 42.7575V32.6094H54.3522V53.968H47.3999L40.3363 43.8187V53.968H32.8926V32.6094H39.8449L46.9096 42.7575Z" fill="#41DD5D"/>
<path d="M46.915 42.776V32.6143H54.3463V53.9604H47.403L40.3293 43.7986V53.9604H32.8992V32.6143H39.8424L46.915 42.776Z" fill="#40DD5C"/>
<path d="M46.922 42.7955V32.6201H54.3408V53.9549H47.4066L40.3238 43.7795V53.9549H32.905V32.6201H39.8392L46.922 42.7955Z" fill="#3FDC5C"/>
<path d="M46.9277 42.8148V32.627H54.3339V53.9492H47.41L40.3181 43.7602V53.9492H32.9106V32.627H39.8357L46.9277 42.8148Z" fill="#3EDC5B"/>
<path d="M46.9334 42.8343V32.6328H54.3283V53.9426H47.4123L40.3113 43.7411V53.9426H32.9175V32.6328H39.8324L46.9334 42.8343Z" fill="#3DDC5A"/>
<path d="M46.9401 42.8538V32.6387H54.3225V53.9371H47.4156L40.3055 43.722V53.9371H32.9231V32.6387H39.8289L46.9401 42.8538Z" fill="#3CDC59"/>
<path d="M46.9457 42.8731V32.6455H54.3157V53.9315H47.419L40.2998 43.7027V53.9315H32.9287V32.6455H39.8266L46.9457 42.8731Z" fill="#3BDC58"/>
<path d="M46.9514 42.8926V32.6514H54.31V53.9248H47.4224L40.293 43.6836V53.9248H32.9355V32.6514H39.8232L46.9514 42.8926Z" fill="#3ADB57"/>
<path d="M46.9582 42.9111V32.6562H54.3043V53.9184H47.4257L40.2873 43.6635V53.9184H32.9412V32.6562H39.8197L46.9582 42.9111Z" fill="#39DB57"/>
<path d="M46.964 42.9304V32.6631H54.2977V53.9127H47.4282L40.2818 43.6443V53.9127H32.947V32.6631H39.8165L46.964 42.9304Z" fill="#38DB56"/>
<path d="M46.9697 42.9499V32.6689H54.292V53.9061H47.4316L40.275 43.6252V53.9061H32.9539V32.6689H39.8131L46.9697 42.9499Z" fill="#37DB55"/>
<path d="M46.9765 42.9694V32.6748H54.2863V53.9006H47.435L40.2693 43.6061V53.9006H32.9595V32.6748H39.8108L46.9765 42.9694Z" fill="#36DB54"/>
<path d="M46.9821 42.9887V32.6816H54.2794V53.895H47.4383L40.2636 43.5868V53.895H32.9651V32.6816H39.8073L46.9821 42.9887Z" fill="#35DB53"/>
<path d="M46.9878 43.0082V32.6875H54.2738V53.8883H47.4417L40.2568 43.5677V53.8883H32.9719V32.6875H39.8039L46.9878 43.0082Z" fill="#34DA52"/>
<path d="M46.9945 43.0277V32.6934H54.268V53.8829H47.444L40.251 43.5486V53.8829H32.9775V32.6934H39.8005L46.9945 43.0277Z" fill="#33DA51"/>
<path d="M47.0002 43.047V32.7002H54.2612V53.8772H47.4473L40.2453 43.5293V53.8772H32.9832V32.7002H39.797L47.0002 43.047Z" fill="#32DA51"/>
<path d="M47.0059 43.0655V32.7051H54.2555V53.8696H47.4507L40.2385 43.5092V53.8696H32.99V32.7051H39.7948L47.0059 43.0655Z" fill="#31DA50"/>
<path d="M47.0129 43.085V32.7109H54.25V53.8641H47.4543L40.233 43.4901V53.8641H32.9958V32.7109H39.7916L47.0129 43.085Z" fill="#30DA4F"/>
<path d="M47.0185 43.1043V32.7178H54.2432V53.8585H47.4565L40.2273 43.4708V53.8585H33.0015V32.7178H39.7881L47.0185 43.1043Z" fill="#2FD94E"/>
<path d="M47.0242 43.1237V32.7236H54.2375V53.8518H47.46L40.2205 43.4517V53.8518H33.0083V32.7236H39.7847L47.0242 43.1237Z" fill="#2ED94D"/>
<path d="M47.0309 43.1432V32.7295H54.2318V53.8464H47.4633L40.2148 43.4326V53.8464H33.0139V32.7295H39.7824L47.0309 43.1432Z" fill="#2DD94C"/>
<path d="M47.0365 43.1625V32.7363H54.2249V53.8407H47.4667L40.209 43.4134V53.8407H33.0195V32.7363H39.7789L47.0365 43.1625Z" fill="#2CD94B"/>
<path d="M47.0422 43.182V32.7422H54.2193V53.8341H47.4701L40.2023 43.3942V53.8341H33.0264V32.7422H39.7755L47.0422 43.182Z" fill="#2BD94B"/>
<path d="M47.049 43.2005V32.7471H54.2135V53.8276H47.4723L40.1965 43.3742V53.8276H33.032V32.7471H39.7721L47.049 43.2005Z" fill="#2AD94A"/>
<path d="M47.0548 43.2198V32.7539H54.2069V53.822H47.4759L40.191 43.3549V53.822H33.0378V32.7539H39.7689L47.0548 43.2198Z" fill="#29D849"/>
<path d="M47.0603 43.2393V32.7598H54.201V53.8153H47.4791L40.184 43.3358V53.8153H33.0444V32.7598H39.7664L47.0603 43.2393Z" fill="#28D848"/>
<path d="M47.0673 43.2588V32.7656H54.1955V53.8099H47.4827L40.1785 43.3167V53.8099H33.0503V32.7656H39.7632L47.0673 43.2588Z" fill="#27D847"/>
<path d="M47.0729 43.2781V32.7725H54.1887V53.8042H47.486L40.1717 43.2974V53.8042H33.0559V32.7725H39.7597L47.0729 43.2781Z" fill="#26D846"/>
<path d="M47.0786 43.2976V32.7783H54.183V53.7976H47.4883L40.166 43.2783V53.7976H33.0627V32.7783H39.7563L47.0786 43.2976Z" fill="#25D845"/>
<path d="M47.0854 43.3171V32.7842H54.1773V53.7921H47.4917L40.1603 43.2592V53.7921H33.0684V32.7842H39.7529L47.0854 43.3171Z" fill="#24D745"/>
<path d="M47.091 43.3354V32.79H54.1704V53.7855H47.495L40.1534 43.239V53.7855H33.074V32.79H39.7505L47.091 43.3354Z" fill="#23D744"/>
<path d="M47.0967 43.3549V32.7959H54.1648V53.7788H47.4984L40.1478 43.2198V53.7788H33.0808V32.7959H39.7471L47.0967 43.3549Z" fill="#22D743"/>
<path d="M47.1034 43.3744V32.8018H54.159V53.7734H47.5018L40.142 43.2007V53.7734H33.0864V32.8018H39.7437L47.1034 43.3744Z" fill="#21D742"/>
<path d="M47.1093 43.3937V32.8086H54.1524V53.7677H47.5042L40.1354 43.1815V53.7677H33.0923V32.8086H39.7405L47.1093 43.3937Z" fill="#20D741"/>
<path d="M47.115 43.4143V32.8145H54.1468V53.7611H47.5077L40.1298 43.1624V53.7611H33.0991V32.8145H39.7371L47.115 43.4143Z" fill="#1FD740"/>
<path d="M47.1217 43.4338V32.8203H54.141V53.7556H47.511L40.124 43.1433V53.7556H33.1047V32.8203H39.7348L47.1217 43.4338Z" fill="#1ED640"/>
<path d="M47.1274 43.4531V32.8271H54.1342V53.7499H47.5144L40.1172 43.124V53.7499H33.1104V32.8271H39.7313L47.1274 43.4531Z" fill="#1DD63F"/>
<path d="M47.1331 43.4716V32.832H54.1285V53.7423H47.5167L40.1115 43.1039V53.7423H33.1172V32.832H39.7279L47.1331 43.4716Z" fill="#1CD63E"/>
<path d="M47.1398 43.4911V32.8379H54.1228V53.7369H47.52L40.1058 43.0848V53.7369H33.1228V32.8379H39.7244L47.1398 43.4911Z" fill="#1BD63D"/>
<path d="M47.1454 43.5104V32.8447H54.1159V53.7312H47.5233L40.0989 43.0655V53.7312H33.1284V32.8447H39.7221L47.1454 43.5104Z" fill="#1AD63C"/>
<path d="M47.1511 43.5299V32.8506H54.1103V53.7246H47.5268L40.0933 43.0464V53.7246H33.1353V32.8506H39.7187L47.1511 43.5299Z" fill="#19D63B"/>
<path d="M47.1581 43.5494V32.8564H54.1036V53.7191H47.5304L40.0878 43.0273V53.7191H33.1411V32.8564H39.7155L47.1581 43.5494Z" fill="#18D53A"/>
<path d="M47.1637 43.5687V32.8633H54.0979V53.7134H47.5326L40.0809 43.008V53.7134H33.1467V32.8633H39.7121L47.1637 43.5687Z" fill="#17D53A"/>
<path d="M47.1706 43.5882V32.8691H54.0923V53.7068H47.536L40.0753 42.9889V53.7068H33.1536V32.8691H39.7087L47.1706 43.5882Z" fill="#16D539"/>
<path d="M47.1762 43.6067V32.874H54.0854V53.7004H47.5393L40.0695 42.9689V53.7004H33.1592V32.874H39.7064L47.1762 43.6067Z" fill="#15D538"/>
<path d="M47.1819 43.626V32.8809H54.0797V53.6947H47.5428L40.0627 42.9496V53.6947H33.166V32.8809H39.703L47.1819 43.626Z" fill="#14D537"/>
<path d="M47.1886 43.6455V32.8867H54.074V53.6881H47.5461L40.057 42.9305V53.6881H33.1716V32.8867H39.6995L47.1886 43.6455Z" fill="#13D436"/>
<path d="M47.1942 43.6649V32.8926H54.0671V53.6826H47.5483L40.0513 42.9114V53.6826H33.1772V32.8926H39.696L47.1942 43.6649Z" fill="#12D435"/>
<path d="M47.2 43.6843V32.8994H54.0615V53.677H47.5518L40.0445 42.8921V53.677H33.1841V32.8994H39.6927L47.2 43.6843Z" fill="#11D434"/>
<path d="M47.2067 43.7037V32.9053H54.0558V53.6703H47.5551L40.0387 42.873V53.6703H33.1897V32.9053H39.6903L47.2067 43.7037Z" fill="#10D434"/>
<path d="M47.2126 43.7232V32.9111H54.0491V53.6648H47.5587L40.0333 42.8539V53.6648H33.1956V32.9111H39.6871L47.2126 43.7232Z" fill="#0FD433"/>
<path d="M47.2183 43.7425V32.918H54.0435V53.6592H47.561L40.0265 42.8346V53.6592H33.2024V32.918H39.6837L47.2183 43.7425Z" fill="#0ED432"/>
<path d="M47.225 43.761V32.9229H54.0377V53.6516H47.5643L40.0207 42.8145V53.6516H33.208V32.9229H39.6803L47.225 43.761Z" fill="#0DD331"/>
<path d="M47.2306 43.7805V32.9287H54.0309V53.6461H47.5677L40.015 42.7954V53.6461H33.2136V32.9287H39.6779L47.2306 43.7805Z" fill="#0CD330"/>
<path d="M47.2363 43.7998V32.9355H54.0252V53.6404H47.5711L40.0082 42.7762V53.6404H33.2205V32.9355H39.6746L47.2363 43.7998Z" fill="#0BD32F"/>
<path d="M47.2431 43.8193V32.9414H54.0195V53.6338H47.5745L40.0025 42.7571V53.6338H33.2261V32.9414H39.6711L47.2431 43.8193Z" fill="#0AD32F"/>
<path d="M47.2487 43.8386V32.9482H54.0126V53.6282H47.5767L39.9968 42.7378V53.6282H33.2317V32.9482H39.6676L47.2487 43.8386Z" fill="#09D32E"/>
<path d="M47.2544 43.8581V32.9541H54.007V53.6216H47.5801L39.99 42.7187V53.6216H33.2385V32.9541H39.6643L47.2544 43.8581Z" fill="#08D22D"/>
<path d="M47.2614 43.8776V32.96H54.0015V53.6161H47.5837L39.9845 42.6996V53.6161H33.2444V32.96H39.6622L47.2614 43.8776Z" fill="#07D22C"/>
<path d="M47.267 43.8969V32.9668H53.9946V53.6104H47.587L39.9788 42.6803V53.6104H33.25V32.9668H39.6587L47.267 43.8969Z" fill="#06D22B"/>
<path d="M47.2727 43.9154V32.9717H53.989V53.6028H47.5905L39.972 42.6591V53.6028H33.2568V32.9717H39.6553L47.2727 43.9154Z" fill="#05D22A"/>
<path d="M47.2795 43.9349V32.9775H53.9832V53.5973H47.5927L39.9662 42.64V53.5973H33.2625V32.9775H39.6519L47.2795 43.9349Z" fill="#04D229"/>
<path d="M47.2851 43.9542V32.9844H53.9764V53.5917H47.596L39.9605 42.6207V53.5917H33.2681V32.9844H39.6484L47.2851 43.9542Z" fill="#03D229"/>
<path d="M47.2908 43.9737V32.9902H53.9707V53.5851H47.5995L39.9537 42.6016V53.5851H33.2749V32.9902H39.6462L47.2908 43.9737Z" fill="#02D128"/>
<path d="M47.2975 43.9932V32.9961H53.965V53.5796H47.6028L39.948 42.5825V53.5796H33.2805V32.9961H39.6427L47.2975 43.9932Z" fill="#01D127"/>
<path d="M47.3034 44.0125L39.6395 33.0029H33.2864V53.5739H39.9425V42.5632L47.6064 53.5739H53.9584V33.0029H47.3034V44.0125Z" fill="#00D126"/>
</g>
<path d="M47.3034 44.0125L39.6395 33.0029H33.2864V53.5739H39.9425V42.5632L47.6064 53.5739H53.9584V33.0029H47.3034V44.0125Z" fill="url(#paint106_linear_22_985)"/>
<defs>
<linearGradient id="paint0_linear_22_985" x1="58.5943" y1="1.65477" x2="58.5943" y2="115.511" gradientUnits="userSpaceOnUse">
<stop stop-color="white"/>
<stop offset="0.76" stop-color="#F6FDFF"/>
<stop offset="1" stop-color="#F2FDFF"/>
</linearGradient>
<linearGradient id="paint1_linear_22_985" x1="50.3107" y1="96.4787" x2="50.3107" y2="116.715" gradientUnits="userSpaceOnUse">
<stop stop-color="#83D6DB"/>
<stop offset="1" stop-color="white"/>
</linearGradient>
<linearGradient id="paint2_linear_22_985" x1="51.0382" y1="0.860938" x2="51.0382" y2="116.715" gradientUnits="userSpaceOnUse">
<stop stop-color="#83D6DB"/>
<stop offset="1" stop-color="white"/>
</linearGradient>
<linearGradient id="paint3_linear_22_985" x1="51.7655" y1="0.860934" x2="51.7655" y2="0.860934" gradientUnits="userSpaceOnUse">
<stop stop-color="#83D6DB"/>
<stop offset="1" stop-color="white"/>
</linearGradient>
<linearGradient id="paint4_linear_22_985" x1="52.493" y1="0.860938" x2="52.493" y2="116.715" gradientUnits="userSpaceOnUse">
<stop stop-color="#83D6DB"/>
<stop offset="1" stop-color="white"/>
</linearGradient>
<linearGradient id="paint5_linear_22_985" x1="53.2206" y1="0.860934" x2="53.2206" y2="0.860934" gradientUnits="userSpaceOnUse">
<stop stop-color="#83D6DB"/>
<stop offset="1" stop-color="white"/>
</linearGradient>
<linearGradient id="paint6_linear_22_985" x1="53.9479" y1="96.4787" x2="53.9479" y2="0.860938" gradientUnits="userSpaceOnUse">
<stop stop-color="#83D6DB"/>
<stop offset="1" stop-color="white"/>
</linearGradient>
<linearGradient id="paint7_linear_22_985" x1="54.6754" y1="0.860934" x2="54.6754" y2="0.860934" gradientUnits="userSpaceOnUse">
<stop stop-color="#83D6DB"/>
<stop offset="1" stop-color="white"/>
</linearGradient>
<linearGradient id="paint8_linear_22_985" x1="55.4029" y1="0.860934" x2="55.4029" y2="0.860934" gradientUnits="userSpaceOnUse">
<stop stop-color="#83D6DB"/>
<stop offset="1" stop-color="white"/>
</linearGradient>
<linearGradient id="paint9_linear_22_985" x1="56.1293" y1="0.860934" x2="56.1293" y2="0.860934" gradientUnits="userSpaceOnUse">
<stop stop-color="#83D6DB"/>
<stop offset="1" stop-color="white"/>
</linearGradient>
<linearGradient id="paint10_linear_22_985" x1="56.8566" y1="0.860934" x2="56.8566" y2="0.860934" gradientUnits="userSpaceOnUse">
<stop stop-color="#83D6DB"/>
<stop offset="1" stop-color="white"/>
</linearGradient>
<linearGradient id="paint11_linear_22_985" x1="57.5842" y1="0.860934" x2="57.5842" y2="0.860934" gradientUnits="userSpaceOnUse">
<stop stop-color="#83D6DB"/>
<stop offset="1" stop-color="white"/>
</linearGradient>
<linearGradient id="paint12_linear_22_985" x1="58.3117" y1="0.860934" x2="58.3117" y2="0.860934" gradientUnits="userSpaceOnUse">
<stop stop-color="#83D6DB"/>
<stop offset="1" stop-color="white"/>
</linearGradient>
<linearGradient id="paint13_linear_22_985" x1="59.0392" y1="0.860934" x2="59.0392" y2="0.860934" gradientUnits="userSpaceOnUse">
<stop stop-color="#83D6DB"/>
<stop offset="1" stop-color="white"/>
</linearGradient>
<linearGradient id="paint14_linear_22_985" x1="59.7665" y1="0.860934" x2="59.7665" y2="0.860934" gradientUnits="userSpaceOnUse">
<stop stop-color="#83D6DB"/>
<stop offset="1" stop-color="white"/>
</linearGradient>
<linearGradient id="paint15_linear_22_985" x1="60.494" y1="0.860934" x2="60.494" y2="0.860934" gradientUnits="userSpaceOnUse">
<stop stop-color="#83D6DB"/>
<stop offset="1" stop-color="white"/>
</linearGradient>
<linearGradient id="paint16_linear_22_985" x1="61.2215" y1="0.860934" x2="61.2215" y2="0.860934" gradientUnits="userSpaceOnUse">
<stop stop-color="#83D6DB"/>
<stop offset="1" stop-color="white"/>
</linearGradient>
<linearGradient id="paint17_linear_22_985" x1="61.9488" y1="0.860934" x2="61.9488" y2="0.860934" gradientUnits="userSpaceOnUse">
<stop stop-color="#83D6DB"/>
<stop offset="1" stop-color="white"/>
</linearGradient>
<linearGradient id="paint18_linear_22_985" x1="62.6764" y1="0.860934" x2="62.6764" y2="0.860934" gradientUnits="userSpaceOnUse">
<stop stop-color="#83D6DB"/>
<stop offset="1" stop-color="white"/>
</linearGradient>
<linearGradient id="paint19_linear_22_985" x1="63.4039" y1="0.860934" x2="63.4039" y2="0.860934" gradientUnits="userSpaceOnUse">
<stop stop-color="#83D6DB"/>
<stop offset="1" stop-color="white"/>
</linearGradient>
<linearGradient id="paint20_linear_22_985" x1="64.1312" y1="96.4787" x2="64.1312" y2="0.860938" gradientUnits="userSpaceOnUse">
<stop stop-color="#83D6DB"/>
<stop offset="1" stop-color="white"/>
</linearGradient>
<linearGradient id="paint21_linear_22_985" x1="64.8588" y1="0.860934" x2="64.8588" y2="0.860934" gradientUnits="userSpaceOnUse">
<stop stop-color="#83D6DB"/>
<stop offset="1" stop-color="white"/>
</linearGradient>
<linearGradient id="paint22_linear_22_985" x1="65.5863" y1="0.860934" x2="65.5863" y2="0.860934" gradientUnits="userSpaceOnUse">
<stop stop-color="#83D6DB"/>
<stop offset="1" stop-color="white"/>
</linearGradient>
<linearGradient id="paint23_linear_22_985" x1="66.3138" y1="0.860934" x2="66.3138" y2="0.860934" gradientUnits="userSpaceOnUse">
<stop stop-color="#83D6DB"/>
<stop offset="1" stop-color="white"/>
</linearGradient>
<linearGradient id="paint24_linear_22_985" x1="67.0411" y1="0.860934" x2="67.0411" y2="0.860934" gradientUnits="userSpaceOnUse">
<stop stop-color="#83D6DB"/>
<stop offset="1" stop-color="white"/>
</linearGradient>
<linearGradient id="paint25_linear_22_985" x1="67.7687" y1="96.4787" x2="67.7687" y2="0.860938" gradientUnits="userSpaceOnUse">
<stop stop-color="#83D6DB"/>
<stop offset="1" stop-color="white"/>
</linearGradient>
<linearGradient id="paint26_linear_22_985" x1="68.4962" y1="0.860934" x2="68.4962" y2="0.860934" gradientUnits="userSpaceOnUse">
<stop stop-color="#83D6DB"/>
<stop offset="1" stop-color="white"/>
</linearGradient>
<linearGradient id="paint27_linear_22_985" x1="69.2224" y1="0.860934" x2="69.2224" y2="0.860934" gradientUnits="userSpaceOnUse">
<stop stop-color="#83D6DB"/>
<stop offset="1" stop-color="white"/>
</linearGradient>
<linearGradient id="paint28_linear_22_985" x1="69.9499" y1="0.860934" x2="69.9499" y2="0.860934" gradientUnits="userSpaceOnUse">
<stop stop-color="#83D6DB"/>
<stop offset="1" stop-color="white"/>
</linearGradient>
<linearGradient id="paint29_linear_22_985" x1="70.6774" y1="96.4787" x2="70.6774" y2="0.860938" gradientUnits="userSpaceOnUse">
<stop stop-color="#83D6DB"/>
<stop offset="1" stop-color="white"/>
</linearGradient>
<linearGradient id="paint30_linear_22_985" x1="71.4047" y1="0.860934" x2="71.4047" y2="0.860934" gradientUnits="userSpaceOnUse">
<stop stop-color="#83D6DB"/>
<stop offset="1" stop-color="white"/>
</linearGradient>
<linearGradient id="paint31_linear_22_985" x1="72.1322" y1="0.860934" x2="72.1322" y2="0.860934" gradientUnits="userSpaceOnUse">
<stop stop-color="#83D6DB"/>
<stop offset="1" stop-color="white"/>
</linearGradient>
<linearGradient id="paint32_linear_22_985" x1="72.8597" y1="0.860934" x2="72.8597" y2="0.860934" gradientUnits="userSpaceOnUse">
<stop stop-color="#83D6DB"/>
<stop offset="1" stop-color="white"/>
</linearGradient>
<linearGradient id="paint33_linear_22_985" x1="73.5873" y1="96.4787" x2="73.5873" y2="0.860938" gradientUnits="userSpaceOnUse">
<stop stop-color="#83D6DB"/>
<stop offset="1" stop-color="white"/>
</linearGradient>
<linearGradient id="paint34_linear_22_985" x1="74.3146" y1="96.4787" x2="74.3146" y2="0.860938" gradientUnits="userSpaceOnUse">
<stop stop-color="#83D6DB"/>
<stop offset="1" stop-color="white"/>
</linearGradient>
<linearGradient id="paint35_linear_22_985" x1="75.0421" y1="96.4787" x2="75.0421" y2="0.860938" gradientUnits="userSpaceOnUse">
<stop stop-color="#83D6DB"/>
<stop offset="1" stop-color="white"/>
</linearGradient>
<linearGradient id="paint36_linear_22_985" x1="75.7696" y1="0.860934" x2="75.7696" y2="0.860934" gradientUnits="userSpaceOnUse">
<stop stop-color="#83D6DB"/>
<stop offset="1" stop-color="white"/>
</linearGradient>
<linearGradient id="paint37_linear_22_985" x1="76.4972" y1="0.860934" x2="76.4972" y2="0.860934" gradientUnits="userSpaceOnUse">
<stop stop-color="#83D6DB"/>
<stop offset="1" stop-color="white"/>
</linearGradient>
<linearGradient id="paint38_linear_22_985" x1="77.2245" y1="96.4787" x2="77.2245" y2="0.860938" gradientUnits="userSpaceOnUse">
<stop stop-color="#83D6DB"/>
<stop offset="1" stop-color="white"/>
</linearGradient>
<linearGradient id="paint39_linear_22_985" x1="77.952" y1="96.4787" x2="77.952" y2="0.860938" gradientUnits="userSpaceOnUse">
<stop stop-color="#83D6DB"/>
<stop offset="1" stop-color="white"/>
</linearGradient>
<linearGradient id="paint40_linear_22_985" x1="78.6796" y1="0.860934" x2="78.6796" y2="0.860934" gradientUnits="userSpaceOnUse">
<stop stop-color="#83D6DB"/>
<stop offset="1" stop-color="white"/>
</linearGradient>
<linearGradient id="paint41_linear_22_985" x1="79.4069" y1="0.860934" x2="79.4069" y2="0.860934" gradientUnits="userSpaceOnUse">
<stop stop-color="#83D6DB"/>
<stop offset="1" stop-color="white"/>
</linearGradient>
<linearGradient id="paint42_linear_22_985" x1="80.1344" y1="0.860934" x2="80.1344" y2="0.860934" gradientUnits="userSpaceOnUse">
<stop stop-color="#83D6DB"/>
<stop offset="1" stop-color="white"/>
</linearGradient>
<linearGradient id="paint43_linear_22_985" x1="80.8619" y1="96.4787" x2="80.8619" y2="0.860938" gradientUnits="userSpaceOnUse">
<stop stop-color="#83D6DB"/>
<stop offset="1" stop-color="white"/>
</linearGradient>
<linearGradient id="paint44_linear_22_985" x1="81.5881" y1="0.860934" x2="81.5881" y2="0.860934" gradientUnits="userSpaceOnUse">
<stop stop-color="#83D6DB"/>
<stop offset="1" stop-color="white"/>
</linearGradient>
<linearGradient id="paint45_linear_22_985" x1="82.3156" y1="0.860934" x2="82.3156" y2="0.860934" gradientUnits="userSpaceOnUse">
<stop stop-color="#83D6DB"/>
<stop offset="1" stop-color="white"/>
</linearGradient>
<linearGradient id="paint46_linear_22_985" x1="83.0432" y1="0.860934" x2="83.0432" y2="0.860934" gradientUnits="userSpaceOnUse">
<stop stop-color="#83D6DB"/>
<stop offset="1" stop-color="white"/>
</linearGradient>
<linearGradient id="paint47_linear_22_985" x1="83.7705" y1="0.860934" x2="83.7705" y2="0.860934" gradientUnits="userSpaceOnUse">
<stop stop-color="#83D6DB"/>
<stop offset="1" stop-color="white"/>
</linearGradient>
<linearGradient id="paint48_linear_22_985" x1="84.498" y1="0.860934" x2="84.498" y2="0.860934" gradientUnits="userSpaceOnUse">
<stop stop-color="#83D6DB"/>
<stop offset="1" stop-color="white"/>
</linearGradient>
<linearGradient id="paint49_linear_22_985" x1="85.2255" y1="0.860934" x2="85.2255" y2="0.860934" gradientUnits="userSpaceOnUse">
<stop stop-color="#83D6DB"/>
<stop offset="1" stop-color="white"/>
</linearGradient>
<linearGradient id="paint50_linear_22_985" x1="85.953" y1="0.860934" x2="85.953" y2="0.860934" gradientUnits="userSpaceOnUse">
<stop stop-color="#83D6DB"/>
<stop offset="1" stop-color="white"/>
</linearGradient>
<linearGradient id="paint51_linear_22_985" x1="86.6805" y1="0.860934" x2="86.6805" y2="0.860934" gradientUnits="userSpaceOnUse">
<stop stop-color="#83D6DB"/>
<stop offset="1" stop-color="white"/>
</linearGradient>
<linearGradient id="paint52_linear_22_985" x1="87.4078" y1="0.860934" x2="87.4078" y2="0.860934" gradientUnits="userSpaceOnUse">
<stop stop-color="#83D6DB"/>
<stop offset="1" stop-color="white"/>
</linearGradient>
<linearGradient id="paint53_linear_22_985" x1="88.1354" y1="0.860934" x2="88.1354" y2="0.860934" gradientUnits="userSpaceOnUse">
<stop stop-color="#83D6DB"/>
<stop offset="1" stop-color="white"/>
</linearGradient>
<linearGradient id="paint54_linear_22_985" x1="88.8629" y1="0.860934" x2="88.8629" y2="0.860934" gradientUnits="userSpaceOnUse">
<stop stop-color="#83D6DB"/>
<stop offset="1" stop-color="white"/>
</linearGradient>
<linearGradient id="paint55_linear_22_985" x1="89.5902" y1="0.860934" x2="89.5902" y2="0.860934" gradientUnits="userSpaceOnUse">
<stop stop-color="#83D6DB"/>
<stop offset="1" stop-color="white"/>
</linearGradient>
<linearGradient id="paint56_linear_22_985" x1="90.3177" y1="0.860934" x2="90.3177" y2="0.860934" gradientUnits="userSpaceOnUse">
<stop stop-color="#83D6DB"/>
<stop offset="1" stop-color="white"/>
</linearGradient>
<linearGradient id="paint57_linear_22_985" x1="91.0453" y1="0.860934" x2="91.0453" y2="0.860934" gradientUnits="userSpaceOnUse">
<stop stop-color="#83D6DB"/>
<stop offset="1" stop-color="white"/>
</linearGradient>
<linearGradient id="paint58_linear_22_985" x1="91.7726" y1="0.860934" x2="91.7726" y2="0.860934" gradientUnits="userSpaceOnUse">
<stop stop-color="#83D6DB"/>
<stop offset="1" stop-color="white"/>
</linearGradient>
<linearGradient id="paint59_linear_22_985" x1="92.5001" y1="0.860934" x2="92.5001" y2="0.860934" gradientUnits="userSpaceOnUse">
<stop stop-color="#83D6DB"/>
<stop offset="1" stop-color="white"/>
</linearGradient>
<linearGradient id="paint60_linear_22_985" x1="93.2277" y1="0.860934" x2="93.2277" y2="0.860934" gradientUnits="userSpaceOnUse">
<stop stop-color="#83D6DB"/>
<stop offset="1" stop-color="white"/>
</linearGradient>
<linearGradient id="paint61_linear_22_985" x1="93.9549" y1="96.4787" x2="93.9549" y2="0.860938" gradientUnits="userSpaceOnUse">
<stop stop-color="#83D6DB"/>
<stop offset="1" stop-color="white"/>
</linearGradient>
<linearGradient id="paint62_linear_22_985" x1="94.6813" y1="96.4787" x2="94.6813" y2="0.860938" gradientUnits="userSpaceOnUse">
<stop stop-color="#83D6DB"/>
<stop offset="1" stop-color="white"/>
</linearGradient>
<linearGradient id="paint63_linear_22_985" x1="95.4089" y1="96.4787" x2="95.4089" y2="0.860938" gradientUnits="userSpaceOnUse">
<stop stop-color="#83D6DB"/>
<stop offset="1" stop-color="white"/>
</linearGradient>
<linearGradient id="paint64_linear_22_985" x1="96.1364" y1="0.860934" x2="96.1364" y2="0.860934" gradientUnits="userSpaceOnUse">
<stop stop-color="#83D6DB"/>
<stop offset="1" stop-color="white"/>
</linearGradient>
<linearGradient id="paint65_linear_22_985" x1="96.8637" y1="0.860934" x2="96.8637" y2="0.860934" gradientUnits="userSpaceOnUse">
<stop stop-color="#83D6DB"/>
<stop offset="1" stop-color="white"/>
</linearGradient>
<linearGradient id="paint66_linear_22_985" x1="97.5912" y1="96.4787" x2="97.5912" y2="0.860938" gradientUnits="userSpaceOnUse">
<stop stop-color="#83D6DB"/>
<stop offset="1" stop-color="white"/>
</linearGradient>
<linearGradient id="paint67_linear_22_985" x1="98.3187" y1="96.4787" x2="98.3187" y2="0.860938" gradientUnits="userSpaceOnUse">
<stop stop-color="#83D6DB"/>
<stop offset="1" stop-color="white"/>
</linearGradient>
<linearGradient id="paint68_linear_22_985" x1="99.0463" y1="0.860934" x2="99.0463" y2="0.860934" gradientUnits="userSpaceOnUse">
<stop stop-color="#83D6DB"/>
<stop offset="1" stop-color="white"/>
</linearGradient>
<linearGradient id="paint69_linear_22_985" x1="99.7736" y1="0.860934" x2="99.7736" y2="0.860934" gradientUnits="userSpaceOnUse">
<stop stop-color="#83D6DB"/>
<stop offset="1" stop-color="white"/>
</linearGradient>
<linearGradient id="paint70_linear_22_985" x1="100.501" y1="96.4787" x2="100.501" y2="0.860938" gradientUnits="userSpaceOnUse">
<stop stop-color="#83D6DB"/>
<stop offset="1" stop-color="white"/>
</linearGradient>
<linearGradient id="paint71_linear_22_985" x1="101.229" y1="96.4787" x2="101.229" y2="0.860938" gradientUnits="userSpaceOnUse">
<stop stop-color="#83D6DB"/>
<stop offset="1" stop-color="white"/>
</linearGradient>
<linearGradient id="paint72_linear_22_985" x1="101.956" y1="96.4787" x2="101.956" y2="0.860938" gradientUnits="userSpaceOnUse">
<stop stop-color="#83D6DB"/>
<stop offset="1" stop-color="white"/>
</linearGradient>
<linearGradient id="paint73_linear_22_985" x1="102.683" y1="0.860934" x2="102.683" y2="0.860934" gradientUnits="userSpaceOnUse">
<stop stop-color="#83D6DB"/>
<stop offset="1" stop-color="white"/>
</linearGradient>
<linearGradient id="paint74_linear_22_985" x1="103.411" y1="0.860934" x2="103.411" y2="0.860934" gradientUnits="userSpaceOnUse">
<stop stop-color="#83D6DB"/>
<stop offset="1" stop-color="white"/>
</linearGradient>
<linearGradient id="paint75_linear_22_985" x1="104.138" y1="0.860934" x2="104.138" y2="0.860934" gradientUnits="userSpaceOnUse">
<stop stop-color="#83D6DB"/>
<stop offset="1" stop-color="white"/>
</linearGradient>
<linearGradient id="paint76_linear_22_985" x1="104.866" y1="96.4787" x2="104.866" y2="0.860938" gradientUnits="userSpaceOnUse">
<stop stop-color="#83D6DB"/>
<stop offset="1" stop-color="white"/>
</linearGradient>
<linearGradient id="paint77_linear_22_985" x1="105.593" y1="0.860934" x2="105.593" y2="0.860934" gradientUnits="userSpaceOnUse">
<stop stop-color="#83D6DB"/>
<stop offset="1" stop-color="white"/>
</linearGradient>
<linearGradient id="paint78_linear_22_985" x1="106.321" y1="0.860934" x2="106.321" y2="0.860934" gradientUnits="userSpaceOnUse">
<stop stop-color="#83D6DB"/>
<stop offset="1" stop-color="white"/>
</linearGradient>
<linearGradient id="paint79_linear_22_985" x1="107.048" y1="0.860934" x2="107.048" y2="0.860934" gradientUnits="userSpaceOnUse">
<stop stop-color="#83D6DB"/>
<stop offset="1" stop-color="white"/>
</linearGradient>
<linearGradient id="paint80_linear_22_985" x1="107.775" y1="96.4787" x2="107.775" y2="0.860938" gradientUnits="userSpaceOnUse">
<stop stop-color="#83D6DB"/>
<stop offset="1" stop-color="white"/>
</linearGradient>
<linearGradient id="paint81_linear_22_985" x1="108.502" y1="96.4787" x2="108.502" y2="0.860938" gradientUnits="userSpaceOnUse">
<stop stop-color="#83D6DB"/>
<stop offset="1" stop-color="white"/>
</linearGradient>
<linearGradient id="paint82_linear_22_985" x1="109.229" y1="0.860934" x2="109.229" y2="0.860934" gradientUnits="userSpaceOnUse">
<stop stop-color="#83D6DB"/>
<stop offset="1" stop-color="white"/>
</linearGradient>
<linearGradient id="paint83_linear_22_985" x1="109.957" y1="0.860934" x2="109.957" y2="0.860934" gradientUnits="userSpaceOnUse">
<stop stop-color="#83D6DB"/>
<stop offset="1" stop-color="white"/>
</linearGradient>
<linearGradient id="paint84_linear_22_985" x1="110.684" y1="0.860934" x2="110.684" y2="0.860934" gradientUnits="userSpaceOnUse">
<stop stop-color="#83D6DB"/>
<stop offset="1" stop-color="white"/>
</linearGradient>
<linearGradient id="paint85_linear_22_985" x1="111.412" y1="96.4787" x2="111.412" y2="0.860938" gradientUnits="userSpaceOnUse">
<stop stop-color="#83D6DB"/>
<stop offset="1" stop-color="white"/>
</linearGradient>
<linearGradient id="paint86_linear_22_985" x1="112.139" y1="0.860934" x2="112.139" y2="0.860934" gradientUnits="userSpaceOnUse">
<stop stop-color="#83D6DB"/>
<stop offset="1" stop-color="white"/>
</linearGradient>
<linearGradient id="paint87_linear_22_985" x1="112.867" y1="0.860934" x2="112.867" y2="0.860934" gradientUnits="userSpaceOnUse">
<stop stop-color="#83D6DB"/>
<stop offset="1" stop-color="white"/>
</linearGradient>
<linearGradient id="paint88_linear_22_985" x1="113.594" y1="0.860934" x2="113.594" y2="0.860934" gradientUnits="userSpaceOnUse">
<stop stop-color="#83D6DB"/>
<stop offset="1" stop-color="white"/>
</linearGradient>
<linearGradient id="paint89_linear_22_985" x1="114.322" y1="0.860934" x2="114.322" y2="0.860934" gradientUnits="userSpaceOnUse">
<stop stop-color="#83D6DB"/>
<stop offset="1" stop-color="white"/>
</linearGradient>
<linearGradient id="paint90_linear_22_985" x1="115.049" y1="96.4787" x2="115.049" y2="0.860938" gradientUnits="userSpaceOnUse">
<stop stop-color="#83D6DB"/>
<stop offset="1" stop-color="white"/>
</linearGradient>
<linearGradient id="paint91_linear_22_985" x1="115.777" y1="0.860934" x2="115.777" y2="0.860934" gradientUnits="userSpaceOnUse">
<stop stop-color="#83D6DB"/>
<stop offset="1" stop-color="white"/>
</linearGradient>
<linearGradient id="paint92_linear_22_985" x1="116.504" y1="0.860934" x2="116.504" y2="0.860934" gradientUnits="userSpaceOnUse">
<stop stop-color="#83D6DB"/>
<stop offset="1" stop-color="white"/>
</linearGradient>
<linearGradient id="paint93_linear_22_985" x1="117.232" y1="0.860934" x2="117.232" y2="0.860934" gradientUnits="userSpaceOnUse">
<stop stop-color="#83D6DB"/>
<stop offset="1" stop-color="white"/>
</linearGradient>
<linearGradient id="paint94_linear_22_985" x1="117.959" y1="0.860934" x2="117.959" y2="0.860934" gradientUnits="userSpaceOnUse">
<stop stop-color="#83D6DB"/>
<stop offset="1" stop-color="white"/>
</linearGradient>
<linearGradient id="paint95_linear_22_985" x1="118.687" y1="0.860934" x2="118.687" y2="0.860934" gradientUnits="userSpaceOnUse">
<stop stop-color="#83D6DB"/>
<stop offset="1" stop-color="white"/>
</linearGradient>
<linearGradient id="paint96_linear_22_985" x1="119.414" y1="0.860934" x2="119.414" y2="0.860934" gradientUnits="userSpaceOnUse">
<stop stop-color="#83D6DB"/>
<stop offset="1" stop-color="white"/>
</linearGradient>
<linearGradient id="paint97_linear_22_985" x1="120.14" y1="0.860934" x2="120.14" y2="0.860934" gradientUnits="userSpaceOnUse">
<stop stop-color="#83D6DB"/>
<stop offset="1" stop-color="white"/>
</linearGradient>
<linearGradient id="paint98_linear_22_985" x1="120.868" y1="0.860934" x2="120.868" y2="0.860934" gradientUnits="userSpaceOnUse">
<stop stop-color="#83D6DB"/>
<stop offset="1" stop-color="white"/>
</linearGradient>
<linearGradient id="paint99_linear_22_985" x1="121.595" y1="96.4787" x2="121.595" y2="0.860938" gradientUnits="userSpaceOnUse">
<stop stop-color="#83D6DB"/>
<stop offset="1" stop-color="white"/>
</linearGradient>
<linearGradient id="paint100_linear_22_985" x1="122.323" y1="0.860934" x2="122.323" y2="0.860934" gradientUnits="userSpaceOnUse">
<stop stop-color="#83D6DB"/>
<stop offset="1" stop-color="white"/>
</linearGradient>
<linearGradient id="paint101_linear_22_985" x1="123.05" y1="0.860934" x2="123.05" y2="0.860934" gradientUnits="userSpaceOnUse">
<stop stop-color="#83D6DB"/>
<stop offset="1" stop-color="white"/>
</linearGradient>
<linearGradient id="paint102_linear_22_985" x1="123.778" y1="0.860934" x2="123.778" y2="0.860934" gradientUnits="userSpaceOnUse">
<stop stop-color="#83D6DB"/>
<stop offset="1" stop-color="white"/>
</linearGradient>
<linearGradient id="paint103_linear_22_985" x1="49.5402" y1="87.1577" x2="117.547" y2="87.1577" gradientUnits="userSpaceOnUse">
<stop stop-color="#423CF6"/>
<stop offset="1" stop-color="#456BF6"/>
</linearGradient>
<linearGradient id="paint104_linear_22_985" x1="43.6229" y1="13.3937" x2="43.6229" y2="96.9328" gradientUnits="userSpaceOnUse">
<stop stop-color="#00F763"/>
<stop offset="0.53" stop-color="#00D126"/>
</linearGradient>
<radialGradient id="paint105_radial_22_985" cx="0" cy="0" r="1" gradientUnits="userSpaceOnUse" gradientTransform="translate(53.8655 82.7601) rotate(-144.35) scale(22.296 55.0712)">
<stop stop-color="#07F4FF"/>
<stop offset="1" stop-color="#07F4FF" stop-opacity="0"/>
</radialGradient>
<linearGradient id="paint106_linear_22_985" x1="33.2864" y1="43.2884" x2="53.9584" y2="43.2884" gradientUnits="userSpaceOnUse">
<stop stop-color="white"/>
<stop offset="1" stop-color="#F3F7FF"/>
</linearGradient>
</defs>
</svg>
