<svg width="100" height="100" viewBox="0 0 100 100" fill="none" xmlns="http://www.w3.org/2000/svg">
<path fill-rule="evenodd" clip-rule="evenodd" d="M50 0C22.385 0 0 22.385 0 50C0 77.615 22.385 100 50 100C77.615 100 100 77.615 100 50C100 22.385 77.615 0 50 0ZM32.5 37.5C32.5 35.2019 32.9526 32.9262 33.8321 30.803C34.7116 28.6798 36.0006 26.7507 37.6256 25.1256C39.2507 23.5006 41.1798 22.2116 43.303 21.3321C45.4262 20.4527 47.7019 20 50 20C52.2981 20 54.5738 20.4527 56.697 21.3321C58.8202 22.2116 60.7493 23.5006 62.3744 25.1256C63.9994 26.7507 65.2884 28.6798 66.1679 30.803C67.0474 32.9262 67.5 35.2019 67.5 37.5C67.5 42.1413 65.6563 46.5925 62.3744 49.8744C59.0925 53.1563 54.6413 55 50 55C45.3587 55 40.9075 53.1563 37.6256 49.8744C34.3437 46.5925 32.5 42.1413 32.5 37.5ZM81.29 74.92C77.546 79.6267 72.7875 83.4274 67.3696 86.0385C61.9518 88.6496 56.0143 90.0038 50 90C43.9857 90.0038 38.0482 88.6496 32.6304 86.0385C27.2125 83.4274 22.454 79.6267 18.71 74.92C26.815 69.105 37.875 65 50 65C62.125 65 73.185 69.105 81.29 74.92Z" fill="#B0B0B0"/>
</svg>
