<svg width="24" height="24" viewBox="0 0 24 24" fill="none" xmlns="http://www.w3.org/2000/svg">
<path d="M20.3659 12.6614C20.2027 12.4789 20.1127 12.2443 20.1127 12.0014C20.1127 11.7585 20.2027 11.5238 20.3659 11.3414L21.6688 9.90136C21.8123 9.74403 21.9015 9.54606 21.9234 9.33587C21.9454 9.12567 21.899 8.91405 21.7909 8.73136L19.7552 5.27136C19.6482 5.08888 19.4853 4.94424 19.2898 4.85805C19.0942 4.77186 18.8759 4.74852 18.6661 4.79136L16.7525 5.17136C16.509 5.22079 16.2555 5.18095 16.0398 5.05936C15.8242 4.93777 15.6613 4.74284 15.5819 4.51136L14.961 2.68136C14.8927 2.48274 14.7626 2.31022 14.5891 2.1882C14.4156 2.06618 14.2074 2.00082 13.994 2.00136H9.92255C9.70058 1.98998 9.48093 2.05029 9.29713 2.17307C9.11333 2.29586 8.9755 2.47438 8.90468 2.68136L8.33467 4.51136C8.25528 4.74284 8.09239 4.93777 7.87674 5.05936C7.6611 5.18095 7.40761 5.22079 7.16412 5.17136L5.19963 4.79136C5.00068 4.76374 4.79787 4.79458 4.61674 4.88C4.43561 4.96542 4.28426 5.10159 4.18176 5.27136L2.14601 8.73136C2.03523 8.91201 1.98542 9.12245 2.0037 9.33258C2.02198 9.54272 2.10742 9.7418 2.2478 9.90136L3.5405 11.3414C3.70368 11.5238 3.79368 11.7585 3.79368 12.0014C3.79368 12.2443 3.70368 12.4789 3.5405 12.6614L2.2478 14.1014C2.10742 14.2609 2.02198 14.46 2.0037 14.6701C1.98542 14.8803 2.03523 15.0907 2.14601 15.2714L4.18176 18.7314C4.28873 18.9138 4.45161 19.0585 4.64718 19.1447C4.84275 19.2309 5.06102 19.2542 5.27088 19.2114L7.18447 18.8314C7.42797 18.7819 7.68145 18.8218 7.8971 18.9434C8.11274 19.0649 8.27563 19.2599 8.35503 19.4914L8.97593 21.3214C9.04675 21.5283 9.18459 21.7069 9.36838 21.8296C9.55218 21.9524 9.77183 22.0127 9.9938 22.0014H14.0653C14.2787 22.0019 14.4868 21.9365 14.6604 21.8145C14.8339 21.6925 14.964 21.52 15.0323 21.3214L15.6532 19.4914C15.7326 19.2599 15.8954 19.0649 16.1111 18.9434C16.3267 18.8218 16.5802 18.7819 16.8237 18.8314L18.7373 19.2114C18.9472 19.2542 19.1654 19.2309 19.361 19.1447C19.5566 19.0585 19.7195 18.9138 19.8264 18.7314L21.8622 15.2714C21.9702 15.0887 22.0166 14.877 21.9947 14.6669C21.9727 14.4567 21.8836 14.2587 21.74 14.1014L20.3659 12.6614ZM18.8493 14.0014L19.6636 14.9014L18.3607 17.1214L17.1596 16.8814C16.4265 16.7341 15.6639 16.8565 15.0166 17.2252C14.3692 17.5938 13.8822 18.1832 13.648 18.8814L13.2612 20.0014H10.6554L10.289 18.8614C10.0547 18.1632 9.5677 17.5738 8.92036 17.2052C8.27301 16.8365 7.51042 16.7141 6.77733 16.8614L5.57624 17.1014L4.25301 14.8914L5.0673 13.9914C5.56805 13.4413 5.84489 12.7293 5.84489 11.9914C5.84489 11.2534 5.56805 10.5414 5.0673 9.99136L4.25301 9.09136L5.55588 6.89136L6.75697 7.13136C7.49006 7.27858 8.25266 7.15624 8.9 6.78756C9.54734 6.41888 10.0344 5.82952 10.2686 5.13136L10.6554 4.00136H13.2612L13.648 5.14136C13.8822 5.83952 14.3692 6.42888 15.0166 6.79756C15.6639 7.16624 16.4265 7.28858 17.1596 7.14136L18.3607 6.90136L19.6636 9.12136L18.8493 10.0214C18.3541 10.5701 18.0808 11.278 18.0808 12.0114C18.0808 12.7447 18.3541 13.4526 18.8493 14.0014ZM11.9583 8.00136C11.153 8.00136 10.3658 8.23596 9.69629 8.67548C9.02674 9.11501 8.50489 9.73972 8.19673 10.4706C7.88857 11.2015 7.80794 12.0058 7.96504 12.7817C8.12214 13.5576 8.50991 14.2704 9.07931 14.8298C9.64872 15.3892 10.3742 15.7702 11.164 15.9245C11.9538 16.0788 12.7724 15.9996 13.5164 15.6969C14.2603 15.3941 14.8962 14.8814 15.3436 14.2236C15.791 13.5658 16.0298 12.7925 16.0298 12.0014C16.0298 10.9405 15.6008 9.92308 14.8373 9.17293C14.0737 8.42279 13.0381 8.00136 11.9583 8.00136ZM11.9583 14.0014C11.5557 14.0014 11.1621 13.8841 10.8273 13.6643C10.4925 13.4445 10.2316 13.1322 10.0775 12.7667C9.92343 12.4013 9.88311 11.9991 9.96166 11.6112C10.0402 11.2232 10.2341 10.8669 10.5188 10.5871C10.8035 10.3074 11.1662 10.117 11.5611 10.0398C11.956 9.96262 12.3653 10.0022 12.7373 10.1536C13.1093 10.305 13.4273 10.5613 13.6509 10.8902C13.8746 11.2191 13.994 11.6058 13.994 12.0014C13.994 12.5318 13.7795 13.0405 13.3978 13.4156C13.016 13.7906 12.4982 14.0014 11.9583 14.0014Z" fill="#FDFDFD"/>
</svg>
