<svg width="22" height="18" viewBox="0 0 22 18" fill="none" xmlns="http://www.w3.org/2000/svg">
<path d="M4 18C3.71667 18 3.47933 17.904 3.288 17.712C3.09667 17.52 3.00067 17.2827 3 17V16C2.16667 16 1.45833 15.7083 0.875 15.125C0.291667 14.5417 0 13.8333 0 13V8C0 7.45 0.196 6.97933 0.588 6.588C0.98 6.19667 1.45067 6.00067 2 6C2.54933 5.99933 3.02033 6.19533 3.413 6.588C3.80567 6.98067 4.00133 7.45133 4 8V12H18V8C18 7.45 18.196 6.97933 18.588 6.588C18.98 6.19667 19.4507 6.00067 20 6C20.5493 5.99933 21.0203 6.19533 21.413 6.588C21.8057 6.98067 22.0013 7.45133 22 8V13C22 13.8333 21.7083 14.5417 21.125 15.125C20.5417 15.7083 19.8333 16 19 16V17C19 17.2833 18.904 17.521 18.712 17.713C18.52 17.905 18.2827 18.0007 18 18C17.7173 17.9993 17.48 17.9033 17.288 17.712C17.096 17.5207 17 17.2833 17 17V16H5V17C5 17.2833 4.904 17.521 4.712 17.713C4.52 17.905 4.28267 18.0007 4 18ZM6 10V8C6 7.08333 5.721 6.26233 5.163 5.537C4.605 4.81167 3.884 4.29933 3 4V3C3 2.16667 3.29167 1.45833 3.875 0.875C4.45833 0.291667 5.16667 0 6 0H16C16.8333 0 17.5417 0.291667 18.125 0.875C18.7083 1.45833 19 2.16667 19 3V4C18.1 4.23333 17.375 4.721 16.825 5.463C16.275 6.205 16 7.05067 16 8V10H6Z" fill="#3F3F3F"/>
</svg>
