<svg width="24" height="24" viewBox="0 0 24 24" fill="none" xmlns="http://www.w3.org/2000/svg">
<path fill-rule="evenodd" clip-rule="evenodd" d="M11.7217 10.3119C11.805 10.2181 11.918 10.1655 12.0359 10.1655C12.1537 10.1655 12.2667 10.2181 12.3501 10.3119L14.8643 13.1404C14.9068 13.1865 14.9406 13.2417 14.9639 13.3027C14.9872 13.3637 14.9995 13.4293 15 13.4957C15.0005 13.562 14.9893 13.6279 14.9669 13.6893C14.9446 13.7508 14.9116 13.8066 14.8698 13.8536C14.8281 13.9005 14.7785 13.9376 14.7239 13.9628C14.6692 13.9879 14.6107 14.0006 14.5517 14C14.4927 13.9994 14.4344 13.9856 14.3801 13.9594C14.3259 13.9332 14.2769 13.8951 14.2359 13.8474L12.0359 11.3724L9.83587 13.8474C9.75205 13.9384 9.63978 13.9888 9.52325 13.9877C9.40672 13.9866 9.29525 13.934 9.21284 13.8413C9.13044 13.7486 9.0837 13.6232 9.08268 13.4921C9.08167 13.361 9.12647 13.2347 9.20743 13.1404L11.7217 10.3119Z" fill="white"/>
</svg>
