<svg width="21" height="21" viewBox="0 0 21 21" fill="none" xmlns="http://www.w3.org/2000/svg">
<path d="M18.6326 21H2.36735C1.05903 21 0 19.941 0 18.6327V2.36736C0 1.06071 1.06071 0 2.36735 0H18.6326C19.9393 0 21 1.06071 21 2.36736V18.6327C21 19.9393 19.9393 21 18.6326 21Z" fill="#E9B62E"/>
<path d="M4.54502 17.7343V7.29786H3.39062L4.88632 3.26416H7.7857V17.7343H4.54502Z" fill="white"/>
<path d="M17.1213 3.26413H9.20619C9.02718 3.26413 8.8833 3.40968 8.8833 3.58702V7.96035H12.047V5.98951H14.2822V7.73115L8.76953 15.5928V17.7158H17.4074V14.8918H12.7865L16.8202 9.22851C16.9474 9.05117 17.0477 8.89725 17.123 8.76341C17.1983 8.63124 17.2619 8.50242 17.3121 8.37527C17.3623 8.24979 17.3974 8.11092 17.4158 7.95868C17.4342 7.80643 17.4442 7.62407 17.4442 7.40992V3.58535C17.4442 3.40634 17.2987 3.26245 17.1213 3.26245V3.26413Z" fill="white"/>
</svg>
