<svg width="21" height="21" viewBox="0 0 21 21" fill="none" xmlns="http://www.w3.org/2000/svg">
<path d="M18.6327 21H2.36735C1.06071 21 0 19.9393 0 18.6327V2.36736C0 1.06071 1.06071 0 2.36735 0H18.6327C19.9393 0 21 1.06071 21 2.36736V18.6327C21 19.9393 19.9393 21 18.6327 21Z" fill="#DD742E"/>
<path d="M4.53498 17.736V7.29786H3.37891L4.87461 3.26416H7.77399V17.736H4.53498Z" fill="white"/>
<path d="M17.1295 8.208H12.0535V6.08658H17.3587V3.26416H8.87305V10.9735H14.3104V15.0072H12.0184V13.1133H8.87472V17.4131C8.87472 17.5921 9.02027 17.736 9.19761 17.736H17.1312C17.3102 17.736 17.4541 17.5904 17.4541 17.4131V8.53256C17.4541 8.35355 17.3085 8.20967 17.1312 8.20967L17.1295 8.208Z" fill="white"/>
</svg>
