<svg width="21" height="21" viewBox="0 0 21 21" fill="none" xmlns="http://www.w3.org/2000/svg">
<path d="M18.6326 21H2.36736C1.05904 21 0 19.941 0 18.6327V2.36736C0 1.06071 1.05904 0 2.36736 0H18.6326C19.9393 0 21 1.06071 21 2.36736V18.6327C21 19.941 19.941 21 18.6326 21Z" fill="#D92B35"/>
<path d="M4.44905 17.7343V7.29786H3.29297L4.79034 3.26416H7.68637V17.7343H4.44905Z" fill="white"/>
<path d="M17.4986 11.8067C17.4735 11.631 17.43 11.4788 17.3665 11.3516C17.3029 11.2262 17.2176 11.1174 17.1105 11.0287C17.0034 10.9401 16.8679 10.8531 16.7039 10.7644L15.7386 10.3093L16.7039 9.79738C16.9934 9.62172 17.1992 9.42597 17.3196 9.21015C17.4401 8.996 17.4986 8.6731 17.4986 8.2448V3.58706C17.4986 3.40804 17.3531 3.26416 17.1757 3.26416H9.12841C8.94939 3.26416 8.80551 3.40971 8.80551 3.58706V8.2448C8.80551 8.65971 8.86742 8.98094 8.9862 9.20011C9.10666 9.42262 9.31244 9.62004 9.60188 9.79738L10.5672 10.3093L9.60188 10.7644C9.27229 10.9401 9.05647 11.1492 8.94772 11.3884C8.84065 11.6294 8.78711 11.9824 8.78711 12.4508V17.4114C8.78711 17.5904 8.93266 17.7343 9.11 17.7343H17.2142C17.3932 17.7343 17.5371 17.5887 17.5371 17.4114V12.4508C17.5371 12.1982 17.5237 11.984 17.4986 11.8067ZM14.3165 14.7412C14.3165 14.9202 14.171 15.0641 13.9936 15.0641H12.3306C12.1516 15.0641 12.0077 14.9186 12.0077 14.7412V11.8452C12.0077 11.6662 12.1533 11.5223 12.3306 11.5223H13.9936C14.1726 11.5223 14.3165 11.6678 14.3165 11.8452V14.7412ZM14.3165 8.78185C14.3165 8.96086 14.171 9.10474 13.9936 9.10474H12.3306C12.1516 9.10474 12.0077 8.95919 12.0077 8.78185V6.24886C12.0077 6.06985 12.1533 5.92597 12.3306 5.92597H13.9936C14.1726 5.92597 14.3165 6.07152 14.3165 6.24886V8.78185Z" fill="white"/>
</svg>
