<svg width="14" height="14" viewBox="0 0 14 14" fill="none" xmlns="http://www.w3.org/2000/svg">
<path d="M1 3.5C1 2.83696 1.26339 2.20107 1.73223 1.73223C2.20107 1.26339 2.83696 1 3.5 1H10.5C11.163 1 11.7989 1.26339 12.2678 1.73223C12.7366 2.20107 13 2.83696 13 3.5V10.5C13 11.163 12.7366 11.7989 12.2678 12.2678C11.7989 12.7366 11.163 13 10.5 13H3.5C2.83696 13 2.20107 12.7366 1.73223 12.2678C1.26339 11.7989 1 11.163 1 10.5V3.5ZM7 3.5C6.86739 3.5 6.74021 3.55268 6.64645 3.64645C6.55268 3.74021 6.5 3.86739 6.5 4V6.5H4C3.86739 6.5 3.74021 6.55268 3.64645 6.64645C3.55268 6.74021 3.5 6.86739 3.5 7C3.5 7.13261 3.55268 7.25979 3.64645 7.35355C3.74021 7.44732 3.86739 7.5 4 7.5H6.5V10C6.5 10.1326 6.55268 10.2598 6.64645 10.3536C6.74021 10.4473 6.86739 10.5 7 10.5C7.13261 10.5 7.25979 10.4473 7.35355 10.3536C7.44732 10.2598 7.5 10.1326 7.5 10V7.5H10C10.1326 7.5 10.2598 7.44732 10.3536 7.35355C10.4473 7.25979 10.5 7.13261 10.5 7C10.5 6.86739 10.4473 6.74021 10.3536 6.64645C10.2598 6.55268 10.1326 6.5 10 6.5H7.5V4C7.5 3.86739 7.44732 3.74021 7.35355 3.64645C7.25979 3.55268 7.13261 3.5 7 3.5Z" fill="#F5F5F5"/>
</svg>
