<svg width="21" height="21" viewBox="0 0 21 21" fill="none" xmlns="http://www.w3.org/2000/svg">
<path d="M18.6327 21H2.36735C1.06071 21 0 19.941 0 18.6327V2.36736C0 1.06071 1.06071 0 2.36735 0H18.6327C19.941 0 21 1.06071 21 2.36736V18.6327C21 19.9393 19.941 21 18.6327 21Z" fill="#269C55"/>
<path d="M6.02517 15.8303L5.77254 14.2359H3.92718L3.67622 15.8286H1.29883V15.8002L3.54907 5.14795H6.14897L8.39921 15.8019V15.8303H6.02349H6.02517ZM4.85069 8.58772L4.26346 12.2232H5.43793L4.85069 8.58772Z" fill="white"/>
<path d="M8.82031 15.8304V5.14966H11.1977V13.6922H13.9934V15.8304H8.82031Z" fill="white"/>
<path d="M14.498 15.8304V5.14966H16.8754L16.8738 13.6922H19.6711V15.8304H14.498Z" fill="white"/>
</svg>
