<svg width="24" height="24" viewBox="0 0 24 24" fill="none" xmlns="http://www.w3.org/2000/svg">
<path d="M11.999 3C17.799 3 22.5 6.664 22.5 11.185C22.5 15.705 17.799 19.369 12 19.369C11.4226 19.368 10.8458 19.3312 10.273 19.259L5.865 22.142C5.364 22.407 5.187 22.378 5.393 21.729L6.285 18.051C3.405 16.591 1.5 14.061 1.5 11.185C1.5 6.665 6.2 3 12 3M17.908 11.06L19.378 9.636C19.4628 9.54791 19.5101 9.43033 19.51 9.30804C19.5098 9.18575 19.4622 9.06829 19.3772 8.98041C19.2922 8.89252 19.1763 8.84107 19.0541 8.83689C18.9319 8.83271 18.8128 8.87613 18.722 8.958L16.794 10.824V9.282C16.794 9.15682 16.7443 9.03676 16.6558 8.94825C16.5672 8.85973 16.4472 8.81 16.322 8.81C16.1968 8.81 16.0768 8.85973 15.9882 8.94825C15.8997 9.03676 15.85 9.15682 15.85 9.282V11.839C15.8334 11.9121 15.8334 11.9879 15.85 12.061V13.5C15.85 13.6252 15.8997 13.7452 15.9882 13.8338C16.0768 13.9223 16.1968 13.972 16.322 13.972C16.4472 13.972 16.5672 13.9223 16.6558 13.8338C16.7443 13.7452 16.794 13.6252 16.794 13.5V12.137L17.221 11.724L18.649 13.757C18.6847 13.8078 18.73 13.851 18.7823 13.8842C18.8347 13.9175 18.8931 13.9401 18.9542 13.9508C19.0153 13.9615 19.0779 13.96 19.1384 13.9465C19.199 13.933 19.2562 13.9077 19.307 13.872C19.3578 13.8363 19.401 13.791 19.4342 13.7387C19.4675 13.6863 19.4901 13.6279 19.5008 13.5668C19.5115 13.5057 19.51 13.4431 19.4965 13.3826C19.483 13.322 19.4577 13.2648 19.422 13.214L17.908 11.06ZM14.95 12.984H13.49V9.297C13.4844 9.17571 13.4323 9.06123 13.3445 8.97737C13.2567 8.89351 13.1399 8.84672 13.0185 8.84672C12.8971 8.84672 12.7803 8.89351 12.6925 8.97737C12.6047 9.06123 12.5526 9.17571 12.547 9.297V13.456C12.547 13.716 12.757 13.928 13.018 13.928H14.95C15.0752 13.928 15.1952 13.8783 15.2838 13.7898C15.3723 13.7012 15.422 13.5812 15.422 13.456C15.422 13.3308 15.3723 13.2108 15.2838 13.1222C15.1952 13.0337 15.0752 12.984 14.95 12.984ZM9.093 11.893L9.789 10.185L10.427 11.892L9.093 11.893ZM11.616 12.38L11.618 12.364C11.6177 12.2451 11.5723 12.1308 11.491 12.044L10.445 9.244C10.4012 9.11057 10.3176 8.99369 10.2056 8.90899C10.0936 8.8243 9.95833 8.7758 9.818 8.77C9.67677 8.76994 9.53882 8.81259 9.42227 8.89237C9.30573 8.97215 9.21605 9.08531 9.165 9.217L7.503 13.292C7.45566 13.4079 7.4563 13.5379 7.50478 13.6533C7.55325 13.7687 7.6456 13.8602 7.7615 13.9075C7.8774 13.9548 8.00736 13.9542 8.12279 13.9057C8.23822 13.8572 8.32966 13.7649 8.377 13.649L8.709 12.836H10.779L11.077 13.636C11.0973 13.6958 11.1295 13.7509 11.1715 13.7981C11.2135 13.8452 11.2645 13.8835 11.3216 13.9105C11.3787 13.9376 11.4406 13.9529 11.5037 13.9557C11.5668 13.9584 11.6298 13.9484 11.689 13.9263C11.7481 13.9042 11.8023 13.8704 11.8482 13.8271C11.8941 13.7837 11.9308 13.7315 11.9561 13.6737C11.9815 13.6158 11.995 13.5535 11.9958 13.4903C11.9967 13.4272 11.9848 13.3645 11.961 13.306L11.616 12.38ZM8.293 9.302C8.29326 9.24003 8.28127 9.17861 8.2577 9.12129C8.23414 9.06397 8.19947 9.01188 8.1557 8.96801C8.11192 8.92414 8.0599 8.88936 8.00263 8.86568C7.94536 8.84199 7.88397 8.82987 7.822 8.83H4.577C4.45182 8.83 4.33176 8.87973 4.24325 8.96825C4.15473 9.05676 4.105 9.17682 4.105 9.302C4.105 9.42718 4.15473 9.54724 4.24325 9.63575C4.33176 9.72427 4.45182 9.774 4.577 9.774H5.737V13.51C5.737 13.6352 5.78673 13.7552 5.87525 13.8438C5.96376 13.9323 6.08382 13.982 6.209 13.982C6.33418 13.982 6.45424 13.9323 6.54275 13.8438C6.63127 13.7552 6.681 13.6352 6.681 13.51V9.774H7.821C7.88306 9.77426 7.94455 9.76224 8.00194 9.73861C8.05932 9.71498 8.11146 9.68023 8.15534 9.63634C8.19923 9.59246 8.23398 9.54032 8.25761 9.48294C8.28124 9.42555 8.29326 9.36406 8.293 9.302Z" fill="black"/>
<rect x="3" y="8" width="18" height="6" fill="black"/>
</svg>
